<svg width="512" height="512" fill="none" xmlns="http://www.w3.org/2000/svg"><path d="M221 45c4.817 2.363 7.637 5.183 10 10 .79 7.968-1.432 13.492-4.688 20.688l-1.499 3.424a1329.014 1329.014 0 01-3.188 7.223c-2.116 4.76-4.174 9.545-6.237 14.328-1.61 3.729-3.226 7.456-4.845 11.181a6750.26 6750.26 0 00-2.611 6.01c-2.758 6.35-5.513 12.701-8.264 19.053l-2.045 4.714A1566.314 1566.314 0 00184 174l3.613 1.611c19.183 8.599 28.431 18.281 38.199 36.889l3.715 6.981 1.808 3.404c2.138 4 4.326 7.97 6.54 11.928a4913.206 4913.206 0 0112.582 22.684l3.275 5.932 2.022 3.665 1.822 3.303c2.734 5 3.062 8.912 2.424 14.603-2.613 5.133-5.539 8.18-11 10-5.269.398-8.566-.075-13-3-4.651-4.792-8.522-10.296-12.438-15.687a4715.218 4715.218 0 00-3.714-5.074l-1.922-2.623c-3.113-4.227-6.269-8.421-9.426-12.616a2537.002 2537.002 0 01-14.938-20.062l-1.644-2.233a2658.165 2658.165 0 01-9.125-12.488l-2.16-2.97L179 216c-.125 40.441-.013 80.875.437 121.313l.034 2.978c.388 34.572.89 69.141 1.529 103.709l2.687-.5 3.313.5c1.149 1.762 1.149 1.762 2.231 3.965 1.744 3.198 1.744 3.198 4.911 4.712 2.758.154 5.41.066 8.167-.114l3.096-.102c3.347-.117 6.688-.29 10.032-.461 2.32-.088 4.64-.171 6.96-.249 4.671-.16 9.34-.334 14.01-.519 8.969-.337 17.931-.386 26.905-.357l2.297.003c15.142.021 30.264.477 45.391 1.122l.871-2.386c1.495-3.461 2.64-4.203 6.129-5.614h9v-21l-9.575.064c-10.43.066-20.859.11-31.289.144-6.324.02-12.649.049-18.973.094-6.102.043-12.203.067-18.304.078-2.33.007-4.661.022-6.991.043-3.258.029-6.516.033-9.775.031l-2.932.044c-6.486-.04-6.486-.04-9.791-2.279-2.287-3.703-1.317-7.199-.37-11.219 1.258-4.331 2.745-8.564 4.27-12.808l1.311-3.724c1.16-3.294 2.333-6.585 3.507-9.874 1.21-3.394 2.41-6.79 3.61-10.187 1.665-4.706 3.332-9.41 5.005-14.113 2.455-6.906 4.885-13.82 7.289-20.743l2.451-7.035c.494-1.419.986-2.839 1.476-4.259.661-1.913 1.33-3.823 1.999-5.733l1.087-3.128C252 316 252 316 254 314c2.986-.254 2.986-.254 6.902-.26l2.177-.012c2.419-.01 4.838-.006 7.257-.002l5.188-.016c4.706-.013 9.413-.014 14.119-.011 3.925.001 7.849-.004 11.773-.009 9.255-.011 18.51-.011 27.765-.005 9.559.006 19.118-.007 28.677-.028a9598.7 9598.7 0 0124.591-.02c4.9.002 9.8-.001 14.7-.015 4.608-.013 9.214-.011 13.822.002 1.693.003 3.387 0 5.08-.008 2.307-.011 4.613-.003 6.92.01h3.917C430 314 430 314 431.877 315.39c1.409 2.021 2.189 3.959 3.005 6.287l1.032 2.905 1.098 3.176 1.178 3.34c1.278 3.631 2.544 7.267 3.81 10.902l2.635 7.499c2.505 7.127 4.996 14.258 7.485 21.39 1.85 5.304 3.702 10.607 5.555 15.91a11754.4 11754.4 0 011.901 5.448c2.16 6.184 4.361 12.347 6.664 18.48.987 2.954 1.359 5.201.76 8.273-1.4 2.132-1.4 2.132-4 4-3.361.59-6.688.505-10.093.454l-3.105.002c-3.387-.003-6.774-.034-10.161-.065a3953.545 3953.545 0 01-25.59-.116c-6.307-.041-12.615-.059-18.922-.079-12.377-.043-24.753-.114-37.129-.196v21h9c3.308 1.684 5.318 2.977 7.375 6.063C375 452 375 452 375 455l2.755.181a1295.867 1295.867 0 0163.745 5.882l3.365.393c6.164.722 12.326 1.465 18.485 2.224 2.443.295 4.888.573 7.334.843l4.035.473 3.373.377c3.202.691 5.289 1.671 7.908 3.627 1 2.938 1 2.938 1 6-1.289 2.511-2.118 3.69-4.803 4.635-2.55.424-4.605.238-7.169-.1l-3.022-.386-3.283-.442-7.064-.905-3.758-.49c-22.141-2.879-44.271-5.346-66.526-7.156l-2.695-.222a910.43 910.43 0 00-4.935-.389c-3.098-.249-5.783-.557-8.745-1.545l.187 3.313C375 475 375 475 373.845 476.707c-2.579 1.808-4.418 1.674-7.554 1.682l-3.549.028-3.836-.018-3.934.008c-2.747.005-5.494-.002-8.241-.016-3.521-.017-7.041-.007-10.562.011-3.359.014-6.717.004-10.075-.003l-3.836.018-3.549-.028-3.129-.008C313 478 313 478 311.155 476.8c-1.563-2.435-1.454-4.118-1.343-6.987l.083-2.731L310 465c-11.354-.03-22.708-.051-34.063-.062l-2.526-.003c-25.15-.023-50.276.113-75.411 1.065l1.016 2.301c1.218 3.34.891 5.297-.016 8.699-2.804 2.804-4.584 2.272-8.513 2.307l-2.026.025c-2.215.024-4.43.033-6.645.039l-4.61.028c-3.224.016-6.448.024-9.672.027-4.134.005-8.268.043-12.402.089-3.175.029-6.35.037-9.525.038a409.91 409.91 0 00-4.572.037c-2.132.027-4.261.022-6.392.01l-3.676.015C128 479 128 479 126.085 476.65 125 474 125 474 125 471c-13.229.538-26.295 1.668-39.438 3.25l-5.594.659a1517.602 1517.602 0 00-41.735 5.567l-2.149.311c-1.89.274-3.778.554-5.667.834-9.238 1.026-9.238 1.026-12.355-.683-1.695-3.093-1.493-5.493-1.062-8.938 3.234-3.388 7.115-3.805 11.559-4.429l2.302-.35c2.524-.379 5.05-.738 7.576-1.096l5.336-.778c25.607-3.68 51.363-6.498 77.141-8.662l2.634-.229 2.318-.194c2.142-.263 4.087-.57 6.134-1.262 1.538-2.266 1.538-2.266 2.687-5 2.279-4.966 2.279-4.966 3.313-6 2.333-.041 4.667-.042 7 0l-.006-3.046c-.051-26.708.098-53.409.377-80.115l.094-9.215c.11-10.763.221-21.526.335-32.289.105-9.972.205-19.943.303-29.914.085-8.646.174-17.291.265-25.937.054-5.129.107-10.258.156-15.387.046-4.795.096-9.591.15-14.386.019-1.75.036-3.5.052-5.25.08-8.859.238-17.65 1.274-26.461l-2.457 1.61-3.356 2.14-3.269 2.11c-11.16 6.355-21.03 6.675-33.543 6.453-1.822-.019-3.643-.036-5.465-.051-4.919-.049-9.838-.127-14.757-.211-3.252-.052-6.505-.095-9.758-.134-5.568-.068-11.136-.148-16.704-.239-2.155-.035-4.31-.068-6.466-.098-3.035-.046-6.07-.104-9.104-.166l-2.703-.035c-7.81-.183-15.707-.494-21.418-6.379-2.712-4.484-2.646-8.9-2-14 2.252-4.677 5.284-7.828 10-10 3.797-.885 7.618-1.259 11.494-1.644l3.486-.386c2.492-.274 4.985-.541 7.479-.802 3.948-.414 7.894-.849 11.84-1.291a6412.161 6412.161 0 0131.536-3.435c6.914-.739 13.826-1.492 20.735-2.273 3.277-.37 6.555-.726 9.835-1.064 3.66-.377 7.316-.786 10.972-1.202l3.267-.312c6.823-.819 10.704-2.505 15.356-7.591l2-2a114.293 114.293 0 00-.5-7.875c-1.475-20.213 7.518-33.83 17.906-50.363 3.785-6.036 7.443-12.144 11.094-18.262 1.881-3.138 3.764-6.275 5.648-9.412 1.231-2.052 2.459-4.105 3.684-6.16 1.733-2.9 3.48-5.79 5.23-8.678l1.551-2.615C204.954 48.886 210.304 43.72 221 45zm-6 13l-11 18c2.139 2.139 3.133 2.427 6 3 1.153-2.392 2.297-4.788 3.437-7.187l.987-2.041c1.693-3.578 3.03-6.809 3.576-10.772l-3-1zm-18 30l-1.386 2.285-3 4.944c-1.925 3.17-3.847 6.341-5.765 9.515-3.396 5.616-6.798 11.222-10.357 16.737C168.038 134.627 166.04 144.339 168 160l1 2c2.527.656 2.527.656 5 1l.692-1.591 12.637-29.065c.881-2.027 1.761-4.055 2.639-6.084 2.286-5.276 4.6-10.537 6.963-15.779l1.421-3.183a661.695 661.695 0 012.721-6.011l1.211-2.724 1.08-2.385c.74-2.534.708-3.772-.364-6.178-2.996-1.304-2.996-1.304-6-2zm-42 91c-1.493 3.425-1.124 4.667.187 8.188 2.186 3.449 2.186 3.449 5.813 4.812 4.167-.074 6.266-.36 9.437-3.125 2.012-3.701 2.305-5.722 1.563-9.875-2.677-2.926-4.623-4.655-8.5-5.625-3.785.947-5.802 2.866-8.5 5.625zm-23.317 4.713l-2.248.266c-2.452.291-4.902.592-7.353.892l-5.099.61c-4.474.535-8.947 1.078-13.42 1.623-4.564.554-9.129 1.101-13.694 1.648C80.912 189.828 71.956 190.911 63 192l1 8c11.536.872 23.034 1.245 34.602 1.296 1.859.011 3.719.032 5.578.061 14.444.465 14.444.465 27.82-4.357l3.164-1.711 2.461-1.664 2.539-1.648c2.165-1.924 2.165-1.924 2.109-5.203L142 184c-3.657-1.219-6.579-.756-10.317-.287zM184 190l-3 7 1.126 1.431c6.466 8.222 12.875 16.45 18.892 25.007 3.982 5.629 8.129 11.131 12.294 16.625l2.068 2.743c3.318 4.357 6.607 8.461 10.62 12.194l5-4c-1.391-3.654-3.021-7.063-4.871-10.507l-1.724-3.214A4061.387 4061.387 0 00215 220l-1.621-2.977a807.475 807.475 0 00-4.317-7.773l-1.245-2.285c-3.899-6.832-8.956-11.418-16.067-14.84l-2.516-1.242c-2.299-1.066-2.299-1.066-5.234-.883zm-147.375 5l-3.773.563L30 196v3c2.766.922 4.383 1.118 7.23 1.098l2.432-.01 2.526-.025 2.56-.014c2.084-.012 4.168-.03 6.252-.049l-1-6c-4.567-.112-8.86.319-13.375 1zM161 205c-.722 5.871-1.157 11.607-1.196 17.518l-.028 2.449c-.028 2.682-.051 5.364-.073 8.046l-.06 5.804c-.053 5.243-.101 10.486-.148 15.729-.051 5.518-.106 11.036-.16 16.555-.092 9.287-.179 18.574-.265 27.862-.109 11.833-.223 23.667-.34 35.5-.1 10.256-.198 20.511-.296 30.766l-.094 9.756c-.222 23.006-.409 46.008-.34 69.015h10l-.075-4.126c-.842-46.846-1.378-93.695-1.888-140.545-.112-10.321-.226-20.641-.341-30.961-.234-21.123-.466-42.245-.696-63.368h-4zm76 57a210.878 210.878 0 00-4 5 982.091 982.091 0 005.312 7l1.514 2.024 1.475 1.914 1.349 1.777c1.401 1.63 1.401 1.63 4.35 1.285-1.392-4.626-3.295-8.647-5.625-12.875l-1.914-3.492L238 262h-1zm26 64c-2.916 7.291-5.672 14.534-8.25 21.938l-1.102 3.111-1.039 2.979-.938 2.679c-.811 2.375-.811 2.375-.671 5.293h35c1.776-6.216 3.033-12.214 4.125-18.562l.551-3.076.519-2.991.47-2.689c.459-3.224.459-3.224.335-8.682h-29zm43 0c-1.644 6.577-2.974 13.025-4.125 19.688l-.551 3.088-.519 2.986-.47 2.686c-.444 2.95-.444 2.95-.335 7.552h36v-36h-30zm43 0v36h36c-.736-8.585-.736-8.585-1.938-17.035l-.523-3.01-.539-3.017-.539-3.123c-.754-5.056-.754-5.056-2.461-9.815h-30zm43 0c.831 4.967 1.667 9.934 2.509 14.899.285 1.691.569 3.381.852 5.072.406 2.426.817 4.851 1.229 7.275l.382 2.305c.345 3.522.345 3.522 2.028 6.449 2.594.089 5.16.116 7.754.098l2.35-.004c2.486-.006 4.972-.018 7.458-.031l5.045-.014c4.131-.011 8.262-.028 12.393-.049-1.517-7.757-3.943-15.05-6.563-22.5l-1.248-3.609c-1.443-5.313-1.443-5.313-4.189-9.891-2.219-.087-4.44-.107-6.66-.097l-2.014.004c-2.129.006-4.259.018-6.389.031l-4.322.014c-3.538.011-7.077.028-10.615.048zm-146 49c-3.127 7.505-6.15 14.903-8.813 22.563l-.943 2.65-.889 2.541-.792 2.26c-.699 2.123-.699 2.123-.563 4.986h44l3-15.812.949-4.98.738-3.915.393-2.047c.526-2.803.92-5.385.92-8.246h-38zm51 0l-3 16.375-.949 5.166-.739 4.045-.392 2.128c-.682 3.62-.682 3.62-.92 7.286h45v-35h-39zm52 0v35h45l-2.438-14.687a4758.797 4758.797 0 00-1.371-8.262l-.619-3.729A313.388 313.388 0 00388 375h-39zm52 0c1.365 11.854 3.648 23.241 6 35h44c-.831-4.153-1.877-7.81-3.25-11.797l-.661-1.921c-.459-1.332-.92-2.663-1.382-3.994-.709-2.044-1.412-4.089-2.113-6.135l-1.344-3.887-1.234-3.569c-.76-2.578-.76-2.578-2.016-3.697a222.504 222.504 0 00-8.41-.097l-2.552.004c-2.7.006-5.4.018-8.101.031l-5.478.014c-4.486.011-8.973.028-13.459.048zm-61 48v21h5v-21h-5zm-194 34a644.676 644.676 0 00-2 3.875l-1.125 2.18c-1.012 1.894-1.012 1.894-.875 3.945h41c-1.298-5.433-1.298-5.433-4-10a168.378 168.378 0 00-7.316-.097l-2.216.004a2355.6 2355.6 0 00-7.031.031l-4.755.014c-3.894.011-7.788.028-11.682.048zm177 0v8h39v-8h-39z" fill="#fff"/><path d="M398.75 132.626c10.543 8.234 17.502 18.97 19.25 32.375 1.031 13.22-2.71 25.075-10.969 35.48-8.049 8.705-18.623 13.895-30.398 14.77-15.203.497-26.782-3.747-37.883-14-7.785-8.157-11.755-19.498-12.125-30.688.451-13.749 5.632-24.361 14.922-34.265 15.696-14.697 39.7-15.517 57.203-3.672zM348 149.001c-6.089 7.662-8.998 15.163-8 25 1.646 9.499 6.48 16.446 14 22.375 8.501 5.807 15.653 6.901 26 5.625 9.196-2.984 16.703-8.372 21.312-16.938 4.309-9.579 4.698-18.021 1.137-27.992-4.225-8.951-11.283-14.667-20.449-18.07-12.58-3.829-25.375.393-34 10zM52.96 103.742l2.134-.01c2.333-.009 4.666-.003 7 .003l4.885-.005c3.42-.003 6.84.001 10.26.01 4.356.012 8.712.005 13.068-.007 3.368-.007 6.736-.005 10.105 0 1.604.002 3.208 0 4.812-.005 26.936-.061 26.936-.061 35.307 7.691 4.455 5.037 5.958 9.577 5.782 16.176-.726 5.588-2.967 10.555-7.188 14.343-5.722 3.777-10.02 4.468-16.726 3.602-5.726-1.287-9.105-4.904-12.399-9.539-1.114-2.229-1.165-3.531-1.187-6l-.043-2.125c.23-1.875.23-1.875 2.23-3.875 5.118-.755 5.118-.755 8 0 1.636 1.675 2.684 3.316 3.797 5.371 1.105 1.79 1.105 1.79 3.199 2.449 2.19.409 2.19.409 4.317-1.383 1.968-2.363 1.968-2.363 1.75-5.5-.823-3.05-.823-3.05-3.25-4.75-5.291-2.233-10.538-2.314-16.224-2.329l-2.17-.01c-1.545-.008-3.09-.013-4.635-.017-2.447-.007-4.893-.023-7.34-.041-6.951-.052-13.903-.101-20.856-.116-4.26-.01-8.52-.039-12.78-.081a492.764 492.764 0 00-4.864-.015c-2.265.002-4.528-.02-6.792-.048l-3.902-.018c-3.25-.512-3.25-.512-5.7-2.319-1.55-2.193-1.55-2.193-1.487-5.818 1.692-6.092 5.286-5.627 10.896-5.634zm65.224-71.007c5.663 2.972 8.797 7.347 10.816 13.266.691 6.162.729 11.828-3 17-6.257 6.564-13.33 9.767-22.428 10.14l-3.977.02-2.204.016c-2.393.014-4.787.021-7.18.027l-5.002.017c-3.488.01-6.976.016-10.465.02-4.473.005-8.947.03-13.42.058-3.44.018-6.88.024-10.32.025-1.65.003-3.3.011-4.95.024-2.303.017-4.605.016-6.908.01l-3.971.01C32 73.001 32 73.001 30.08 71.698 28.227 68.786 28.584 66.33 29 63c2.33-2.48 3.769-2.972 7.166-3.386l3.785-.015 2.096-.021c2.282-.02 4.564-.02 6.847-.02 1.591-.011 3.183-.025 4.775-.04 4.191-.036 8.382-.056 12.573-.071 6.697-.025 13.395-.065 20.092-.122 2.332-.017 4.664-.02 6.997-.023l4.328-.031 3.792-.013c4.482-.326 8.651-1.132 12.548-3.446 1.713-3.105.899-5.515 0-8.812-1.703-1.727-1.703-1.727-4-2-3.343.835-4.074 2.117-5.937 5.062-2.063 2.938-2.063 2.938-4.5 4-3.468-.084-4.996-.716-7.563-3.062-.821-4.745-.016-8.293 2.625-12.356 5.976-7.147 14.777-8.863 23.559-5.91zM16.642 81.611l2.318-.016a820.12 820.12 0 017.571.006l5.268-.009c3.678-.004 7.357.002 11.035.016 4.715.017 9.43.007 14.144-.01 3.625-.011 7.25-.008 10.876 0 1.738.002 3.477 0 5.215-.008 2.43-.007 4.859.004 7.288.021 1.078-.01 1.078-.01 2.176-.018 3.086.039 5.18.244 7.89 1.778C92.528 85.544 92.853 86.997 93 90c-.977 2.707-1.405 3.703-4 5-2.547.109-5.067.157-7.615.161l-2.38.015c-2.605.015-5.21.022-7.814.027l-5.418.018c-3.788.01-7.577.016-11.366.02-4.86.005-9.72.029-14.581.057-3.73.019-7.462.024-11.192.026-1.793.003-3.585.01-5.377.024a800.54 800.54 0 01-7.513.009l-2.253.028c-2.914-.024-4.982-.046-7.448-1.688C4.245 90.772 4.586 88.314 5 84.999c3.313-3.622 7.039-3.427 11.642-3.388zM323 182c2.073 2.333 1.993 3.893 2.188 7-1.33 3.359-1.648 3.601-4.75 5.063A150.132 150.132 0 01315 196a413.874 413.874 0 01-8.25 2.813l-2.076.701c-3.908 1.231-6.754 1.851-10.674.486-1.875-1.687-1.875-1.687-3-4 0-3.062 0-3.062 1-6 4.291-3.214 9.327-4.64 14.375-6.25l2.5-.851c5.164-1.656 8.835-2.273 14.125-.899zm128-42.001c2.062 1.625 2.062 1.625 3 4-.065 3.196-.173 5.167-2.473 7.485-3.751 2.25-7.737 3.417-11.902 4.703l-2.539.826c-4.446 1.395-8.374 2.507-13.086 1.986-2.791-1.983-3.826-3.129-4.5-6.5.687-3.433 1.757-4.295 4.5-6.5 3.008-1.341 6.1-2.298 9.25-3.25l2.488-.812c5.268-1.636 9.745-2.366 15.262-1.938zm-99-50.998c3.488 3.407 4.685 8.171 6.188 12.687l.826 2.319c1.727 5.139 3.143 10.573 1.986 15.994-3.47 2.313-4.925 2.34-9 2-3.411-2.274-3.628-3.036-4.824-6.797l-.928-2.906-.935-3.047-.971-3c-2.906-9.27-2.906-9.27-2.342-14.25 2.276-4.017 5.793-3.526 10-3zM393 218c4.22 4.12 5.592 8.944 7.25 14.437l.813 2.526c1.376 4.443 2.382 8.332 1.937 13.037-1.062 1.875-1.062 1.875-3 3-6.133.657-6.133.657-8.603-1.215-2.847-3.636-3.785-8.306-5.147-12.66l-.996-3.012-.926-2.918-.847-2.656c-.675-3.564-.289-6.306 1.707-9.352 2.774-1.817 4.575-1.716 7.812-1.187zm25-16c2.738 1.758 2.738 1.758 5.312 4.125l2.614 2.321c2.411 2.969 2.971 4.754 3.074 8.554-2.062 2.938-2.062 2.938-5 5-3.499.311-5.284-.473-8.09-2.539-3.119-2.651-5.63-5.04-7.91-8.461.188-3.562.188-3.562 1-7 3.52-2.346 4.855-2.504 9-2zM390 98c1.875 1.063 1.875 1.063 3 3.001.765 6.116-.708 12.312-3 18-3 2-3 2-6.563 1.812-3.437-.812-3.437-.812-5.437-3.812-.216-6.46.921-12.336 4-18 2.799-1.4 4.905-1.253 8-1zm27.875 15.188c3.125.812 3.125.812 5.063 1.937 1.695 2.991 1.706 4.461 1.062 7.875-2.078 2.926-4.471 5.461-7 8l-1.512 1.711C414 134 414 134 410.5 134.438 407 134 407 134 405 132.375c-1.364-3.24-.872-4.986 0-8.375 3.35-5.105 6.775-9.533 12.875-10.812zM364 220c1.66 1.223 1.66 1.223 3 3 .471 6.423-1.052 12.35-4 18-1 1-1 1-4.375 1.25-3.625-.25-3.625-.25-5.562-1.312-2.971-5.418-.5-11.982.89-17.583C355 221 355 221 356.949 219.664c2.745-.889 4.33-.571 7.051.336zm-38.625-101.125c5.342 2.73 9.706 6.657 11.813 12.313C337 134 337 134 335.438 136.375 333 138 333 138 330.25 138.688c-5.659-1.197-9.328-5.428-12.988-9.731C316 127 316 127 316 123.938c1-2.938 1-2.938 3.125-5 2.875-.938 2.875-.938 6.25-.063zm8.625 86.75c3 .375 3 .375 4.813 1.563 1.592 2.429 2.119 3.882 2.187 6.812-1.562 2.938-1.562 2.938-4 6l-1.359 1.715c-2.772 3.166-4.033 4.192-8.328 4.847C324 226 324 226 322.063 224.875c-1.696-2.991-1.707-4.461-1.063-7.875 2.078-2.926 4.471-5.461 7-8l1.543-1.715C331 206 331 206 334 205.625zm-20.875-55.501l3.695.821c3 .994 4.403 1.493 6.18 4.054.425 4.078.313 5.531-2 9-4.12 1.42-7.441.76-11.625-.187l-3.414-.731c-3.274-1.196-4.345-2.034-5.961-5.082 0-3.062 0-3.062 1-6 4.22-3.495 6.943-3.096 12.125-1.875zm126.949 27.117c1.926.758 1.926.758 4.051 3.071 1.026 3.152 1.091 4.606-.125 7.687-1.5 1.875-1.5 1.875-4 3-6.067.191-11.518-1.553-17-4-1.399-2.799-1.253-4.905-1-8 3.048-5.715 12.86-3.037 18.074-1.758z" fill="#fff"/></svg>