<svg width="889" height="341" fill="none" xmlns="http://www.w3.org/2000/svg"><path d="M889.005 74.531c-3.11 4.37-7.303 4.68-11.919 4.537-10.648-.329-21.274-.44-31.431 3.876-10.021 4.259-16.563 11.172-17.578 22.254-.707 7.714-1.017 15.49-1.027 23.239-.08 60.651-.044 121.302-.045 181.954 0 8.431-2.212 10.609-10.767 10.609-18.828 0-37.657.004-56.485-.002-7.282-.002-10.716-3.418-10.735-10.848-.041-16.329-.013-32.658-.013-48.987 0-49.154-.154-98.309.062-147.462.117-26.513 6.307-51.042 24.322-71.728 13.981-16.053 30.469-28.33 50.56-35.242 7.419-2.552 15.493-3.19 23.255-4.766.894-.182 1.702-.789 2.676-1.582.125-.383.625-.383 1.054.019 2.568.467 4.721.398 6.843.62C868.215 2.12 879.34-2.133 889.005 5v69.531z" fill="#fff"/><path d="M601.589 0c9.805 1.982 10.872 8.386 10.594 16.78-.584 17.642-.164 35.317-.185 52.978-.007 6.539-2.736 9.22-9.219 9.245-10.532.041-21.119-.74-31.33 2.98-12.694 4.623-20.614 14.02-20.557 28.471.258 65.978.126 131.958.068 197.937-.003 2.584-.416 5.238-1.103 7.732-.864 3.143-3.08 4.891-6.539 4.887-20.827-.024-41.654.036-62.48-.046-4.88-.019-7.826-3.24-7.827-8.101-.009-70.812-.312-141.625.196-212.432.137-19.18 7.187-36.92 18.495-52.407 11.671-15.985 26.981-28.114 44.629-36.986 10.554-5.306 21.98-8.16 33.831-9.082 1.21-.094 2.374-.791 3.701-1.582 1.531-.374 2.92-.374 4.935.005 6.486.127 12.347-.126 18.207-.379h4.584zm-152 0c2.343.64 4.227 1.542 6.206 1.866 4.942.811 6.27 3.89 6.251 8.447-.091 21.829-.04 43.657-.04 65.486 0 28.328.252 56.658-.081 84.981-.263 22.321-7.846 42.152-21.784 59.668-11.704 14.708-26.416 25.582-43.029 33.813-11.352 5.624-23.775 8.368-36.452 8.643-17.655.382-35.324.103-52.987.092-6.952-.004-9.657-2.638-9.662-9.447-.015-19.33.049-38.659-.035-57.988-.029-6.726 3.247-11.048 10.742-10.723 13.305.577 26.654.102 39.984.183 8.97.054 16.991-2.589 24.447-7.534 7.367-4.886 10.755-11.924 10.782-20.341.154-47.656.02-95.313.189-142.969.012-3.437.785-7.567 2.808-10.088 1.69-2.105 5.732-2.322 8.905-3.732 1.562-.357 2.95-.357 4.966.023 14.485.456 28.344.547 42.203.568.668 0 1.336-.618 2.004-.948h4.583z" fill="#79AF42"/><path d="M734.537 0c1.802 2.697 4.18 5.353 4.286 8.098.436 11.29.201 22.606.175 33.912-.013 5.66-1.29 6.977-6.867 6.98-31.758.02-63.516-.032-95.274.06-4.205.012-5.961-1.492-5.906-5.802.156-12.302-.061-24.61.177-36.91.036-1.883 1.704-3.735 2.747-5.97C667.36 0 700.714 0 734.537 0zm-92.515 60c28.823 0 57.15.193 85.472-.126 7.781-.087 11.66 4.191 11.627 11.38-.222 48.486.292 96.977-.296 145.456-.274 22.665-7.124 43.582-21.603 61.675-11.769 14.705-26.303 25.99-42.918 34.288-9.765 4.877-20.536 7.87-31.696 8.308-10.748.423-21.501.796-32.255.983-8.088.14-11.346-3.23-11.347-11.212-.002-18.328-.008-36.656.002-54.984.005-9.679 2.128-11.668 11.866-11.796 9.802-.129 19.594.77 29.222-2.823 13.316-4.969 20.53-13.286 20.832-28.921.338-17.487.077-34.985.077-53.228h-21.804c-2.166 0-4.342-.13-6.496.027-4.388.32-5.777-1.8-5.749-5.952.117-17.494.049-34.99.049-52.485 0-11.497.128-22.995-.064-34.489-.074-4.48 1.537-6.467 6.089-6.139 2.818.204 5.663.038 8.992.038z" fill="#fff"/><path d="M140.316 245.791c2.435.922 4.574 2.113 6.719 2.125 23.654.134 47.309.099 70.963.074 6.434-.007 10.004-3.636 10.006-10.022.005-15.658-.017-31.317.012-46.975.01-5.641 1.352-6.946 7.017-6.986 4.497-.032 8.999-.124 13.491.035 3.574.126 5.614 1.579 5.563 5.803-.2 16.489.289 32.992-.182 49.47-.508 17.781-10.696 28.137-26.692 33.391-4.109 1.35-8.803 1.217-13.23 1.242-20.989.117-41.979.133-62.967-.012-4.558-.031-9.111-.871-14.01-1.373 0 3.044.027 6.191-.005 9.337-.13 12.527-6.063 21.459-16.395 28.319-8.4 5.577-17.516 4.799-26.66 4.63-.996-.019-2.751-1.944-2.8-3.045-.275-6.151-.301-12.33.015-18.477.06-1.158 1.896-2.866 3.187-3.175 2.206-.528 4.634-.05 6.96-.173 6.958-.367 10.687-4.303 10.691-11.289.016-29.484.116-58.97-.102-88.453-.036-4.846 1.527-6.535 6.188-6.288 4.485.237 8.995.14 13.49.024 3.821-.098 5.581 1.144 5.518 5.412-.224 15.156-.274 30.32.05 45.472.077 3.571 1.875 7.104 3.173 10.934z" fill="#76AC42"/><path d="M446.813 273c7.164-.532 8.382 1.096 8.256 7.464-.226 11.49-.188 22.99-.002 34.482.074 4.548-1.713 6.121-6.191 6.112-47.978-.093-95.956-.05-143.934-.068-5.586-.003-6.914-1.385-6.928-7.077a5579.62 5579.62 0 01.003-33.985c.021-5.973 1.008-6.925 6.886-6.926 47.146-.004 94.291-.002 141.91-.002z" fill="#79AF42"/><path d="M86.375 286.226c-.954 10.47-7.091 17.134-14.638 22.801-6.593 4.951-14.17 6.364-22.3 6.03-6.821-.279-13.67-.254-20.491.019-3.844.154-4.958-1.624-4.945-4.956.02-5.166.006-10.332.008-15.498.001-3.125 1.112-4.819 4.694-4.687 6.324.233 12.663.009 18.994.078 9.89.107 15.904-4.249 13.764-17.013H23.175C10.055 272.999.012 262.833.006 249.541c-.005-11.165-.011-22.33.002-33.495.017-14.861 14.75-29.862 29.532-31.188 11.078-.993 21.967-1.368 32.878 1.097 11.744 2.654 22 14.506 23.385 25.215 1.269 9.805 1.097 19.825 1.148 29.753.079 14.976-.201 29.954-.576 45.303zm-61.37-59.68v21.052h36.999c0-8.883.182-17.371-.053-25.846-.227-8.176-4.16-11.751-12.233-11.752-2.996 0-5.996.112-8.985-.019-13.197-.582-16.903 3.34-15.728 16.565z" fill="#76AC42"/><path d="M841.387 138.863c-1.005-1.567-2.331-2.886-2.259-4.124.474-8.147-1.168-16.277 1.64-24.479 3.703-10.814 15.15-17.513 24.302-18.194 4.969-.37 9.989-.145 14.983-.043 4.745.097 6.891 2.199 6.925 6.956.083 11.656.007 23.314.04 34.972.009 3.54-1.772 5.914-5.141 5.962-12.985.186-25.974.044-38.961-.02-.402-.002-.802-.486-1.529-1.03z" fill="#fff"/><path d="M231.005 290c7.985 0 15.472.088 22.954-.041 3.03-.053 4.107 1.112 4.087 4.112-.094 13.805-.131 27.612.024 41.415.037 3.322-1.51 4.45-4.356 4.487-5.488.071-10.978.073-16.466-.001-2.874-.039-4.409-1.257-4.305-4.536.21-6.614.063-13.239.063-20.378h-24.517c0-7.562-.216-14.623.204-21.646.073-1.219 2.771-3.148 4.358-3.256 5.795-.394 11.633-.156 17.954-.156z" fill="#76AC42"/></svg>