<svg width="512" height="512" fill="none" xmlns="http://www.w3.org/2000/svg"><g clip-path="url(#clip0_137_199)"><mask id="mask0_137_199" style="mask-type:luminance" maskUnits="userSpaceOnUse" x="0" y="0" width="512" height="512"><path d="M512 0H0v512h512V0z" fill="#fff"/></mask><g mask="url(#mask0_137_199)" fill="#fff"><path d="M301 74c13.793 11.983 24.828 28.898 26.185 47.536.666 13.813.237 26.932-6.185 39.464l2.034.005c16.36.037 32.72.096 49.08.179 7.912.04 15.823.072 23.735.087 6.899.013 13.799.04 20.698.084 3.65.022 7.3.038 10.95.037 4.084-.001 8.167.029 12.251.062l3.631-.015c10.098.125 17.941 2.174 25.148 9.487 3.592 5.059 5.017 10.678 6.06 16.709l.407 2.229c.444 2.441.875 4.884 1.307 7.328.315 1.751.632 3.502.949 5.253.853 4.722 1.696 9.447 2.537 14.172.88 4.932 1.769 9.863 2.657 14.795 1.465 8.141 2.924 16.284 4.38 24.427 1.915 10.716 3.844 21.43 5.778 32.143 1.274 7.059 2.546 14.119 3.818 21.178l.909 5.047c.862 4.785 1.723 9.57 2.581 14.356l.773 4.296c7.323 40.629 7.323 40.629 1.649 49.571-5.219 6.153-11.288 10.227-19.332 11.57-1.529.093-3.06.143-4.592.154l-2.701.026-2.926.013-3.111.025c-3.39.025-6.78.041-10.17.056l-3.511.016c-6.127.026-12.253.046-18.38.06-5.073.014-10.145.042-15.218.082-6.127.049-12.253.074-18.38.081-2.335.007-4.67.022-7.004.046-3.263.032-6.525.032-9.788.025l-2.926.049c-4.592-.042-6.635-.134-10.393-2.982C372 389 372 389 371.375 386c.868-4.165 2.242-5.423 5.625-8 3.34-.725 6.612-.66 10.019-.612l3.047-.017c3.321-.013 6.641.008 9.961.028 2.311-.006 4.621-.014 6.931-.025a3170.64 3170.64 0 0118.246-.006c9.732.018 19.463.009 29.194-.026 3.399-.006 6.796.007 10.194.022 2.086-.003 4.173-.006 6.259-.011l2.858.028c5.171-.031 8.837-.44 13.291-3.381 1.263-2.526 1.133-4.303 1.125-7.125l.008-2.758c-.159-3.721-.671-7.421-1.133-11.117H25c-2.06 11.172-2.06 11.172.813 21.625 3.576 2.248 6.383 2.501 10.512 2.503l3.367.009 3.715-.006 3.934.007c2.856.004 5.712.006 8.568.005 4.647-.002 9.294.004 13.94.01 6.746.008 13.492.013 20.238.016 10.659.005 21.317.022 31.975.041l10.934.019 2.761.005c10.371.018 20.742.034 31.114.049l2.873.004c15.375.022 30.749.033 46.124.04 15.775.009 31.55.032 47.325.068 9.736.023 19.472.032 29.208.026 6.668-.003 13.337.008 20.006.031 3.85.013 7.701.019 11.551.007 4.17-.012 8.339.007 12.509.029l3.708-.026 3.375.033 2.918.003c3.269.648 4.464 1.947 6.532 4.502.566 2 .566 2 .562 4l.067 2c-.985 3.132-2.953 4.2-5.629 6-2.803.481-2.803.481-5.892.454l-3.517-.001-3.767-.062-3.879-.017c-3.392-.016-6.783-.055-10.175-.099-3.466-.041-6.931-.06-10.397-.08-6.792-.04-13.581-.119-20.373-.195v26l9.375-.312c9.018-.103 15.55.717 22.441 6.957 6.19 6.607 7.648 13.008 7.372 21.793l-.042 2.506A531.434 531.434 0 01329 457l1.709-.047c2.597-.063 5.194-.102 7.791-.14l2.688-.077c8.306-.091 14.952 1.664 21.207 7.389 6.928 8.092 7.798 17.063 7.855 27.25l.062 2.789c.033 5.717-.363 9.875-3.312 14.836-4.262 3.422-8.37 3.425-13.616 3.381l-2.626.014c-2.902.012-5.805.003-8.707-.007a3994.085 3994.085 0 01-23.202.015c-5.913-.007-11.826 0-17.738.004-9.93.006-19.86-.001-29.79-.016-11.484-.016-22.968-.011-34.452.006-9.855.013-19.711.015-29.567.007-5.888-.004-11.776-.005-17.665.005-5.535.009-11.07.003-16.606-.015a1239.93 1239.93 0 00-6.099.004c-2.772.008-5.544-.002-8.316-.017l-2.445.02c-4.56-.047-7.578-.513-11.171-3.401-3.338-5.678-3.459-10.832-3.375-17.312l-.035-2.686c.043-9.894 2.287-18.831 9.41-26.002 5.363-4.154 9.954-6.141 16.766-6.098l2.695.01 2.789.026 2.836.013c2.305.012 4.609.029 6.914.049l-.176-3.586c-.352-10.192-.356-18.278 6.821-26.238 6.966-6.494 13.585-7.62 22.793-7.363L222 420v-26l-7.266.02c-22.587.062-45.173.106-67.76.136-11.612.015-23.224.036-34.837.07-10.122.03-20.244.05-30.367.056-5.358.004-10.717.014-16.075.035-5.047.021-10.094.027-15.141.022-1.85.001-3.699.007-5.547.019-21.596.128-21.596.128-31.007-7.358-4.968-4.995-7.23-9.504-7.315-16.603l.02-2.129L6.72 366c.16-8.253 1.515-16.188 3.015-24.285.31-1.737.618-3.473.926-5.21.7-3.934 1.409-7.866 2.124-11.797a5148.654 5148.654 0 003.629-20.272 16178.352 16178.352 0 018.203-45.803l.407-2.256a17071.47 17071.47 0 003.293-18.357c1.072-5.989 2.149-11.978 3.229-17.965a5357.53 5357.53 0 001.906-10.62 4608.43 4608.43 0 012.116-11.741l.614-3.465c3.933-21.549 3.933-21.549 13.69-28.577 7.305-4.383 14.57-3.87 22.827-3.892 2.228-.01 4.455-.041 6.682-.072 1.424-.007 2.848-.012 4.272-.016l3.905-.028c3.66.379 5.537 1.144 8.442 3.356.883 1.867.883 1.867 1.125 3.875l.32 1.992c-.728 3.489-2.747 4.913-5.445 7.133-3.334.58-3.334.58-7.094.531l-2.027.01c-2.845.013-5.688-.031-8.532-.071a434.45 434.45 0 00-6.253-.001l-3.76-.049c-4.309.75-5.704 2.138-8.334 5.58-1.08 2.676-1.08 2.676-1.511 5.57l-.608 3.219-.568 3.336-.604 3.266a700.678 700.678 0 00-1.102 6.145c-.845 4.825-1.73 9.644-2.607 14.464h97l1-13c.295-2.541.614-5.08.973-7.613l.537-3.838.552-3.861.565-4.014c.454-3.225.912-6.45 1.373-9.674l-2.782.064c-3.415.068-6.828.118-10.243.156-1.476.02-2.953.047-4.429.082-2.125.049-4.249.071-6.374.089l-3.872.063c-3.3-.454-3.3-.454-5.69-2.326-1.908-2.522-2.533-3.96-2.61-7.128 1.622-3.486 2.765-4.843 6-7 3.018-.278 3.018-.278 6.766-.319l2.071-.03c2.256-.031 4.512-.048 6.768-.065a3634.429 3634.429 0 0117.05-.187c4.203-.04 8.406-.091 12.609-.141 8.245-.097 16.49-.181 24.736-.258l-.832-2.032-1.091-2.691-1.082-2.657c-6.352-16.73-4.5-37.366 2.665-53.444 8.778-18.414 24.222-31.175 43.215-38.246C256.75 54.746 281.977 59.577 301 74zm-88 21c-10.596 13.536-13.292 28.274-12 45 1.586 8.44 4.768 14.383 9 22h92c8.054-16.108 12.415-30.379 7.375-48.062-5.358-14.749-15.728-27.222-29.914-34.184C255.241 69.519 230.557 75.969 213 95zm-46 84a225.99 225.99 0 00-1.191 7.797l-.332 2.381a2146.29 2146.29 0 00-.689 5.004c-.347 2.544-.703 5.087-1.059 7.631-.224 1.619-.448 3.239-.67 4.859l-.322 2.299A80.213 80.213 0 00162 220h86v-42c-14.194-.029-14.194-.029-28.389-.049-5.785-.006-11.57-.013-17.356-.026-4.662-.011-9.324-.017-13.986-.02-1.782-.002-3.565-.005-5.348-.011-2.488-.007-4.976-.008-7.464-.007l-2.256-.011c-3.387-.296-3.387-.296-6.201 1.124zm97-1v42h86a492.845 492.845 0 00-3-27.187l-.539-4.002a3966.221 3966.221 0 01-.996-7.226c-.197-2.507-.197-2.507-1.465-3.585a173.31 173.31 0 00-7.457-.113l-2.365-.001c-2.592.001-5.184.009-7.776.016l-5.376.005c-4.727.004-9.453.013-14.18.024-5.666.012-11.331.017-16.997.023-8.617.01-17.233.029-25.849.046zm97 0c1.005 14.063 3.006 28.043 5 42h97c-.746-8.205-1.734-15.851-3.312-23.875l-.608-3.336c-1.441-7.666-1.441-7.666-6.08-13.789-3.273-1.637-6.892-1.129-10.489-1.113l-2.661-.001c-2.911.001-5.822.009-8.733.016l-6.045.005c-5.31.004-10.62.013-15.93.024-5.416.011-10.832.015-16.247.02-10.632.011-21.263.028-31.895.049zM46 236c-1.564 4.693-2.677 9.085-3.508 13.918l-.395 2.24c-.272 1.552-.543 3.104-.811 4.656-.412 2.378-.83 4.754-1.25 7.129l-.794 4.538-.378 2.149c-.488 2.835-.864 5.487-.864 8.37h100c3.493-21.431 3.493-21.431 5-43H46zm113 1a221.267 221.267 0 00-1.191 7.762l-.332 2.374c-.232 1.663-.461 3.327-.689 4.991a2167.18 2167.18 0 01-1.059 7.598 4031.56 4031.56 0 00-.67 4.849l-.322 2.283c-.559 4.138-.737 7.933-.737 12.143h94v-43c-15.616-.029-15.616-.029-31.232-.049-6.365-.006-12.73-.013-19.095-.026-5.129-.011-10.257-.017-15.386-.02-1.961-.002-3.923-.005-5.884-.011-2.737-.007-5.474-.008-8.211-.007l-2.483-.011c-3.654-.341-3.654-.341-6.709 1.124zm105-1v43h94c-.733-9.533-1.677-18.809-3-28.25l-.539-3.988-.523-3.777-.473-3.416c-.199-2.493-.199-2.493-1.465-3.569a209.115 209.115 0 00-8.192-.113l-2.601-.001c-2.852.001-5.703.009-8.555.016l-5.914.005c-5.2.004-10.4.013-15.6.024-6.233.012-12.467.017-18.7.023-9.479.01-18.959.029-28.438.046zm105 0c1.028 14.393 3.028 28.706 5 43h100c-1.38-9.658-2.846-19.22-4.562-28.812l-.67-3.83-.647-3.627-.58-3.269c-.295-2.395-.295-2.395-1.541-3.462a253.427 253.427 0 00-9.018-.113l-2.867-.001c-3.144.001-6.288.009-9.431.016l-6.52.005c-5.733.004-11.466.013-17.198.024-5.845.011-11.69.015-17.534.02-11.478.011-22.955.028-34.432.049zM35 295c-4.833 20.711-4.833 20.711-7 42h102c3.47-20.933 3.47-20.933 5-42H35zm116 0c-3.47 20.933-3.47 20.933-5 42h102v-42h-97zm113 0v42h102c-1.081-14.057-3.074-28.033-5-42h-97zm113 0c1.081 14.057 3.074 28.034 5 42h102c-.813-9.124-.813-9.124-2.156-18.094a7419.09 7419.09 0 01-.66-3.679l-.684-3.727-.684-3.82c-1.105-6.415-1.105-6.415-2.816-12.68H377zm-139 99v26h36v-26h-36zm-38 46c-2.539 5.077-1 11.324-1 17h114c1.562-14.115 1.562-14.115-4-20-2.278-1.139-3.548-1.132-6.079-1.147l-2.587-.022-2.845-.008-2.991-.02c-3.277-.02-6.553-.031-9.83-.041l-3.386-.012c-5.912-.021-11.825-.036-17.737-.045-6.114-.011-12.227-.045-18.341-.085-4.695-.026-9.39-.035-14.085-.038-2.254-.005-4.508-.017-6.761-.035a932.07 932.07 0 00-9.459-.017l-2.826-.039c-5.288.043-8.286.427-12.073 4.509zm-39 36c-4.513 7.004-3 11.842-3 21h196c.757-11.577.757-11.577-3-21-4.109-3.156-7.293-3.376-12.401-3.381l-2.23-.014c-2.46-.012-4.92-.002-7.381.007a2996.889 2996.889 0 00-19.678-.015c-5.015.008-10.031.001-15.047-.004-8.423-.005-16.847.002-25.27.016-9.739.016-19.478.011-29.217-.005-8.361-.014-16.722-.016-25.083-.008-4.994.005-9.988.005-14.982-.005-4.695-.008-9.39-.002-14.085.015-1.723.004-3.446.003-5.17-.004-2.352-.008-4.703.002-7.055.017l-3.989.004c-3.655.404-5.516 1.153-8.412 3.377zM347 36c2.563 2.062 2.563 2.062 4 5-.287 7.938-4.707 11.69-10.035 16.927a240.44 240.44 0 00-4.49 4.594c-8.012 8.129-8.012 8.129-13.034 8.236C320 70 320 70 317.5 68.437c-2.249-3.655-2.392-5.18-1.5-9.437 2.625-3.704 5.785-6.808 9-10a1646.31 1646.31 0 003.199-3.274C339.086 34.642 339.086 34.642 347 36zm-176.121-.59c4.358 1.212 7.035 4.432 10.121 7.59a1706.15 1706.15 0 003.324 3.254c11.52 11.316 11.52 11.316 12.051 16.183C196 66 196 66 194.5 68.437c-2.742 1.714-4.844 2.344-8.088 2.274-5.141-1.516-8.735-5.946-12.36-9.726a231.809 231.809 0 00-4.534-4.55C161.256 48.067 161.256 48.067 161 41c2.225-4.547 4.738-5.977 9.879-5.59z"/><path d="M363.343 121.815c2.019-.003 4.037-.021 6.056-.04l3.875-.006 3.545-.012c3.173.242 5.353.817 8.182 2.243 2.167 2.66 1.995 4.088 1.813 7.562-1.084 4.587-1.084 4.587-3.813 6.438a63.69 63.69 0 01-7.809.469l-2.312.023a520.36 520.36 0 01-4.839.009c-2.466-.001-4.928.041-7.393.085-1.569.005-3.137.008-4.706.008l-2.228.049c-3.792-.051-5.389-.335-8.178-2.989-1.877-3.245-2.163-4.964-1.535-8.654 5.06-6.456 11.809-5.186 19.342-5.185zm-219.001-.001c2.019-.002 4.038-.021 6.057-.039l3.875-.006 3.544-.013c3.173.242 5.353.818 8.182 2.243 2.167 2.66 1.995 4.088 1.813 7.563-1.084 4.586-1.084 4.586-3.813 6.437a63.493 63.493 0 01-7.809.469l-2.312.023c-1.613.011-3.226.014-4.839.009-2.466-.001-4.928.041-7.393.085-1.569.005-3.137.008-4.706.008l-2.228.05c-3.775-.051-5.401-.356-8.213-2.954-2.046-3.668-1.607-5.704-.5-9.69 4.217-5.75 11.976-4.186 18.342-4.185zM256-.5l2-.031c2.989.794 4.096 2.105 6 4.531.399 2.622.562 4.816.531 7.434l.012 2.166c.003 1.509-.005 3.018-.021 4.526a330.64 330.64 0 00.025 6.9c-.003 1.469-.008 2.938-.016 4.408l.025 2.07C264.464 36.246 263.36 38.679 260 42c-2 .664-2 .664-4 .625l-2 .04c-3.164-1.051-4.204-2.906-6-5.665-.39-2.666-.563-4.908-.531-7.566l-.012-2.17c-.002-1.507.005-3.014.022-4.52.021-2.303 0-4.603-.026-6.906.003-1.468.008-2.936.016-4.404l-.025-2.078c.067-3.384.348-5.091 2.464-7.787C252.179-.134 253.199-.544 256-.5z"/></g></g><defs><clipPath id="clip0_137_199"><path fill="#fff" d="M0 0h512v512H0z"/></clipPath></defs></svg>