<svg width="512" height="512" viewBox="0 0 512 512" fill="none" xmlns="http://www.w3.org/2000/svg">
<path d="M221 45.0003C225.817 47.3634 228.637 50.1833 231 55.0003C231.79 62.9677 229.568 68.4917 226.312 75.6878C225.57 77.383 225.57 77.383 224.813 79.1124C223.757 81.5232 222.695 83.9308 221.625 86.3353C219.509 91.0952 217.451 95.88 215.388 100.663C213.778 104.392 212.162 108.119 210.543 111.844C209.97 113.162 209.398 114.479 208.826 115.797C208.531 116.476 208.236 117.155 207.932 117.854C205.174 124.204 202.419 130.555 199.668 136.907C198.987 138.479 198.305 140.05 197.623 141.621C192.957 152.364 188.424 163.155 184 174C185.192 174.532 186.384 175.063 187.613 175.611C206.796 184.21 216.044 193.892 225.812 212.5C227.05 214.828 228.288 217.154 229.527 219.481C230.422 221.166 230.422 221.166 231.335 222.885C233.473 226.885 235.661 230.855 237.875 234.813C242.092 242.362 246.28 249.926 250.457 257.497C251.548 259.474 252.64 261.452 253.732 263.429C254.406 264.651 255.08 265.872 255.754 267.094C256.355 268.184 256.957 269.274 257.576 270.397C260.31 275.397 260.638 279.309 260 285C257.387 290.133 254.461 293.18 249 295C243.731 295.398 240.434 294.925 236 292C231.349 287.208 227.478 281.704 223.562 276.313C222.325 274.621 221.087 272.929 219.848 271.239C218.897 269.94 218.897 269.94 217.926 268.616C214.813 264.389 211.657 260.195 208.5 256C203.489 249.336 198.507 242.651 193.562 235.938C192.748 234.833 192.748 234.833 191.918 233.705C188.863 229.552 185.824 225.388 182.793 221.217C182.08 220.237 181.368 219.257 180.633 218.247C180.094 217.506 179.555 216.764 179 216C178.875 256.441 178.987 296.875 179.437 337.313C179.448 338.296 179.459 339.278 179.471 340.291C179.859 374.863 180.361 409.432 181 444C181.887 443.835 182.774 443.67 183.687 443.5C184.781 443.665 185.874 443.83 187 444C188.149 445.762 188.149 445.762 189.231 447.965C190.975 451.163 190.975 451.163 194.142 452.677C196.9 452.831 199.552 452.743 202.309 452.563C203.331 452.529 204.353 452.496 205.405 452.461C208.752 452.344 212.093 452.171 215.437 452C217.757 451.912 220.077 451.829 222.397 451.751C227.068 451.591 231.737 451.417 236.407 451.232C245.376 450.895 254.338 450.846 263.312 450.875C264.07 450.876 264.828 450.877 265.609 450.878C280.751 450.899 295.873 451.355 311 452C311.287 451.213 311.575 450.425 311.871 449.614C313.366 446.153 314.511 445.411 318 444C320.97 444 323.94 444 327 444C327 437.07 327 430.14 327 423C323.84 423.021 320.68 423.042 317.425 423.064C306.995 423.13 296.566 423.174 286.136 423.208C279.812 423.228 273.487 423.257 267.163 423.302C261.061 423.345 254.96 423.369 248.859 423.38C246.529 423.387 244.198 423.402 241.868 423.423C238.61 423.452 235.352 423.456 232.093 423.454C231.125 423.469 230.158 423.483 229.161 423.498C222.675 423.458 222.675 423.458 219.37 421.219C217.083 417.516 218.053 414.02 219 410C220.258 405.669 221.745 401.436 223.27 397.192C223.702 395.963 224.135 394.734 224.581 393.468C225.741 390.174 226.914 386.883 228.088 383.594C229.298 380.2 230.498 376.804 231.698 373.407C233.363 368.701 235.03 363.997 236.703 359.294C239.158 352.388 241.588 345.474 243.992 338.551C244.809 336.206 245.626 333.861 246.443 331.516C246.937 330.097 247.429 328.677 247.919 327.257C248.58 325.344 249.249 323.434 249.918 321.524C250.277 320.492 250.635 319.46 251.005 318.396C252 316 252 316 254 314C256.986 313.746 256.986 313.746 260.902 313.74C261.62 313.736 262.339 313.732 263.079 313.728C265.498 313.718 267.917 313.722 270.336 313.726C272.065 313.721 273.794 313.716 275.524 313.71C280.23 313.697 284.937 313.696 289.643 313.699C293.568 313.7 297.492 313.695 301.416 313.69C310.671 313.679 319.926 313.679 329.181 313.685C338.74 313.691 348.299 313.678 357.858 313.657C366.055 313.64 374.252 313.633 382.449 313.637C387.349 313.639 392.249 313.636 397.149 313.622C401.757 313.609 406.363 313.611 410.971 313.624C412.664 313.627 414.358 313.624 416.051 313.616C418.358 313.605 420.664 313.613 422.971 313.626C424.264 313.626 425.556 313.626 426.888 313.626C430 314 430 314 431.877 315.39C433.286 317.411 434.066 319.349 434.882 321.677C435.222 322.635 435.563 323.594 435.914 324.582C436.457 326.154 436.457 326.154 437.012 327.758C437.4 328.86 437.789 329.963 438.19 331.098C439.468 334.729 440.734 338.365 442 342C442.878 344.5 443.756 347 444.635 349.499C447.14 356.626 449.631 363.757 452.12 370.889C453.97 376.193 455.822 381.496 457.675 386.799C458.309 388.615 458.943 390.431 459.576 392.247C461.736 398.431 463.937 404.594 466.24 410.727C467.227 413.681 467.599 415.928 467 419C465.6 421.132 465.6 421.132 463 423C459.639 423.59 456.312 423.505 452.907 423.454C451.882 423.455 450.858 423.456 449.802 423.456C446.415 423.453 443.028 423.422 439.641 423.391C437.292 423.384 434.944 423.378 432.595 423.374C426.414 423.359 420.233 423.319 414.051 423.275C407.744 423.234 401.436 423.216 395.129 423.196C382.752 423.153 370.376 423.082 358 423C358 429.93 358 436.86 358 444C360.97 444 363.94 444 367 444C370.308 445.684 372.318 446.977 374.375 450.063C375 452 375 452 375 455C376.364 455.09 376.364 455.09 377.755 455.181C399.069 456.612 420.281 458.582 441.5 461.063C442.611 461.192 443.721 461.322 444.865 461.456C451.029 462.178 457.191 462.921 463.35 463.68C465.793 463.975 468.238 464.253 470.684 464.523C472.029 464.681 473.374 464.838 474.719 464.996C475.832 465.121 476.945 465.245 478.092 465.373C481.294 466.064 483.381 467.044 486 469C487 471.938 487 471.938 487 475C485.711 477.511 484.882 478.69 482.197 479.635C479.647 480.059 477.592 479.873 475.028 479.535C474.03 479.407 473.033 479.28 472.006 479.149C470.922 479.003 469.839 478.857 468.723 478.707C466.368 478.405 464.013 478.103 461.659 477.802C460.419 477.64 459.179 477.478 457.901 477.312C435.76 474.433 413.63 471.966 391.375 470.156C390.486 470.083 389.596 470.01 388.68 469.934C387.035 469.8 385.39 469.67 383.745 469.545C380.647 469.296 377.962 468.988 375 468C375.093 469.64 375.093 469.64 375.187 471.313C375 475 375 475 373.845 476.707C371.266 478.515 369.427 478.381 366.291 478.389C365.12 478.398 363.948 478.407 362.742 478.417C360.843 478.408 360.843 478.408 358.906 478.399C357.608 478.402 356.31 478.405 354.972 478.407C352.225 478.412 349.478 478.405 346.731 478.391C343.21 478.374 339.69 478.384 336.169 478.402C332.81 478.416 329.452 478.406 326.094 478.399C324.828 478.405 323.562 478.411 322.258 478.417C321.087 478.408 319.916 478.398 318.709 478.389C317.16 478.385 317.16 478.385 315.58 478.381C313 478 313 478 311.155 476.8C309.592 474.365 309.701 472.682 309.812 469.813C309.84 468.912 309.867 468.011 309.895 467.082C309.947 466.052 309.947 466.052 310 465C298.646 464.97 287.292 464.949 275.937 464.938C274.687 464.937 274.687 464.937 273.411 464.935C248.261 464.912 223.135 465.048 198 466C198.335 466.76 198.67 467.519 199.016 468.301C200.234 471.641 199.907 473.598 199 477C196.196 479.804 194.416 479.272 190.487 479.307C189.818 479.315 189.15 479.323 188.461 479.332C186.246 479.356 184.031 479.365 181.816 479.371C180.279 479.38 178.742 479.39 177.206 479.399C173.982 479.415 170.758 479.423 167.534 479.426C163.4 479.431 159.266 479.469 155.132 479.515C151.957 479.544 148.782 479.552 145.607 479.553C144.083 479.557 142.559 479.569 141.035 479.59C138.903 479.617 136.774 479.612 134.643 479.6C133.43 479.605 132.217 479.61 130.967 479.615C128 479 128 479 126.085 476.65C125 474 125 474 125 471C111.771 471.538 98.7054 472.668 85.5625 474.25C83.6976 474.47 81.8327 474.69 79.9677 474.909C66.0282 476.566 52.1207 478.433 38.2326 480.476C37.1692 480.63 37.1692 480.63 36.0843 480.787C34.1946 481.061 32.3057 481.341 30.417 481.621C21.1793 482.647 21.1793 482.647 18.0625 480.938C16.3666 477.845 16.5694 475.445 17 472C20.2339 468.612 24.1151 468.195 28.5586 467.571C29.3185 467.455 30.0785 467.34 30.8615 467.221C33.3851 466.842 35.9109 466.483 38.4375 466.125C40.216 465.866 41.9944 465.606 43.7729 465.347C69.3797 461.667 95.1359 458.849 120.914 456.685C121.783 456.609 122.653 456.534 123.548 456.456C124.313 456.392 125.078 456.328 125.866 456.262C128.008 455.999 129.953 455.692 132 455C133.538 452.734 133.538 452.734 134.687 450C136.966 445.034 136.966 445.034 138 444C140.333 443.959 142.667 443.958 145 444C144.998 442.995 144.996 441.989 144.994 440.954C144.943 414.246 145.092 387.545 145.371 360.839C145.403 357.767 145.434 354.696 145.465 351.624C145.575 340.861 145.686 330.098 145.8 319.335C145.905 309.363 146.005 299.392 146.103 289.421C146.188 280.775 146.277 272.13 146.368 263.484C146.422 258.355 146.475 253.226 146.524 248.097C146.57 243.302 146.62 238.506 146.674 233.711C146.693 231.961 146.71 230.211 146.726 228.461C146.806 219.602 146.964 210.811 148 202C146.784 202.797 146.784 202.797 145.543 203.61C144.436 204.316 143.328 205.023 142.187 205.75C141.109 206.446 140.03 207.143 138.918 207.86C127.758 214.215 117.888 214.535 105.375 214.313C103.553 214.294 101.732 214.277 99.9104 214.262C94.991 214.213 90.0724 214.135 85.1535 214.051C81.9007 213.999 78.6479 213.956 75.395 213.917C69.8268 213.849 64.2589 213.769 58.691 213.678C56.5357 213.643 54.3804 213.61 52.225 213.58C49.1901 213.534 46.1557 213.476 43.1211 213.414C42.229 213.403 41.3369 213.391 40.4177 213.379C32.6087 213.196 24.7111 212.885 19 207C16.2885 202.516 16.3544 198.1 17 193C19.2519 188.323 22.2839 185.172 27 183C30.7971 182.115 34.6179 181.741 38.4939 181.356C40.2193 181.165 40.2193 181.165 41.9796 180.97C44.4719 180.696 46.965 180.429 49.4587 180.168C53.4074 179.754 57.3535 179.319 61.2991 178.877C71.8077 177.703 82.3203 176.564 92.8346 175.442C99.7487 174.703 106.661 173.95 113.57 173.169C116.847 172.799 120.125 172.443 123.405 172.105C127.065 171.728 130.721 171.319 134.377 170.903C135.455 170.8 136.533 170.697 137.644 170.591C144.467 169.772 148.348 168.086 153 163C153.66 162.34 154.32 161.68 155 161C154.928 158.338 154.753 155.771 154.5 153.125C153.025 132.912 162.018 119.295 172.406 102.762C176.191 96.7262 179.849 90.6178 183.5 84.5003C185.381 81.3622 187.264 78.225 189.148 75.0882C190.379 73.0363 191.607 70.9829 192.832 68.9281C194.565 66.0289 196.312 63.1387 198.062 60.2503C198.574 59.3873 199.086 58.5243 199.613 57.6351C204.954 48.8864 210.304 43.7197 221 45.0003ZM215 58.0003C211.37 63.9403 207.74 69.8803 204 76.0003C206.139 78.1389 207.133 78.4269 210 79.0003C211.153 76.6076 212.297 74.2115 213.437 71.8128C213.763 71.1393 214.088 70.4658 214.424 69.7718C216.117 66.1939 217.454 62.9635 218 59.0003C217.01 58.6703 216.02 58.3403 215 58.0003ZM197 88.0003C196.314 89.1312 196.314 89.1312 195.614 90.285C194.614 91.9331 193.614 93.5812 192.614 95.229C190.689 98.3989 188.767 101.57 186.849 104.744C183.453 110.36 180.051 115.966 176.492 121.481C168.038 134.627 166.04 144.339 168 160C168.33 160.66 168.66 161.32 169 162C171.527 162.656 171.527 162.656 174 163C174.228 162.475 174.457 161.95 174.692 161.409C186.012 135.373 186.012 135.373 187.329 132.344C188.21 130.317 189.09 128.289 189.968 126.26C192.254 120.984 194.568 115.723 196.931 110.481C197.4 109.431 197.869 108.381 198.352 107.298C199.249 105.29 200.156 103.286 201.073 101.287C201.672 99.9387 201.672 99.9387 202.284 98.5631C202.64 97.776 202.997 96.9889 203.364 96.178C204.104 93.6445 204.072 92.4064 203 90.0003C200.004 88.6958 200.004 88.6958 197 88.0003ZM155 179C153.507 182.425 153.876 183.667 155.187 187.188C157.373 190.637 157.373 190.637 161 192C165.167 191.926 167.266 191.64 170.437 188.875C172.449 185.174 172.742 183.153 172 179C169.323 176.074 167.377 174.345 163.5 173.375C159.715 174.322 157.698 176.241 155 179ZM131.683 183.713C130.941 183.801 130.199 183.888 129.435 183.979C126.983 184.27 124.533 184.571 122.082 184.871C120.382 185.075 118.683 185.278 116.983 185.481C112.509 186.016 108.036 186.559 103.563 187.104C98.9991 187.658 94.4341 188.205 89.8691 188.752C80.9118 189.828 71.9556 190.911 63 192C63.33 194.64 63.66 197.28 64 200C75.5363 200.872 87.0341 201.245 98.602 201.296C100.461 201.307 102.321 201.328 104.18 201.357C118.624 201.822 118.624 201.822 132 197C133.044 196.436 134.088 195.871 135.164 195.289C135.976 194.74 136.788 194.191 137.625 193.625C138.463 193.081 139.301 192.537 140.164 191.977C142.329 190.053 142.329 190.053 142.273 186.774C142.183 185.859 142.093 184.943 142 184C138.343 182.781 135.421 183.244 131.683 183.713ZM184 190C182.515 193.465 182.515 193.465 181 197C181.372 197.472 181.743 197.944 182.126 198.431C188.592 206.653 195.001 214.881 201.018 223.438C205 229.067 209.147 234.569 213.312 240.063C213.995 240.968 214.677 241.873 215.38 242.806C218.698 247.163 221.987 251.267 226 255C227.65 253.68 229.3 252.36 231 251C229.609 247.346 227.979 243.937 226.129 240.493C225.56 239.432 224.991 238.371 224.405 237.279C221.283 231.512 218.15 225.752 215 220C214.465 219.018 213.93 218.035 213.379 217.023C211.956 214.423 210.514 211.835 209.062 209.25C208.651 208.496 208.24 207.742 207.817 206.965C203.918 200.133 198.861 195.547 191.75 192.125C190.92 191.715 190.09 191.305 189.234 190.883C186.935 189.817 186.935 189.817 184 190ZM36.625 195C34.7571 195.279 34.7571 195.279 32.8515 195.563C31.9105 195.707 30.9695 195.852 30 196C30 196.99 30 197.98 30 199C32.7656 199.922 34.3828 200.118 37.2304 200.098C38.0329 200.095 38.8353 200.092 39.6621 200.088C40.4955 200.08 41.3288 200.071 42.1875 200.063C43.4549 200.056 43.4549 200.056 44.748 200.049C46.832 200.037 48.916 200.019 51 200C50.67 198.02 50.34 196.04 50 194C45.4331 193.888 41.1394 194.319 36.625 195ZM161 205C160.278 210.871 159.843 216.607 159.804 222.518C159.795 223.326 159.786 224.134 159.776 224.967C159.748 227.649 159.725 230.331 159.703 233.013C159.683 234.948 159.664 236.882 159.643 238.817C159.59 244.06 159.542 249.303 159.495 254.546C159.444 260.064 159.389 265.582 159.335 271.101C159.243 280.388 159.156 289.675 159.07 298.963C158.961 310.796 158.847 322.63 158.73 334.463C158.63 344.719 158.532 354.974 158.434 365.229C158.403 368.481 158.371 371.733 158.34 374.985C158.118 397.991 157.931 420.993 158 444C161.3 444 164.6 444 168 444C167.975 442.639 167.951 441.277 167.925 439.874C167.083 393.028 166.547 346.179 166.037 299.329C165.925 289.008 165.811 278.688 165.696 268.368C165.462 247.245 165.23 226.123 165 205C163.68 205 162.36 205 161 205ZM237 262C235.642 263.647 234.307 265.313 233 267C234.76 269.343 236.532 271.674 238.312 274C239.062 275.002 239.062 275.002 239.826 276.024C240.313 276.655 240.799 277.287 241.301 277.938C241.746 278.524 242.191 279.111 242.65 279.715C244.051 281.345 244.051 281.345 247 281C245.608 276.374 243.705 272.353 241.375 268.125C240.743 266.973 240.112 265.82 239.461 264.633C238.979 263.764 238.497 262.895 238 262C237.67 262 237.34 262 237 262ZM263 326C260.084 333.291 257.328 340.534 254.75 347.938C254.386 348.965 254.023 349.991 253.648 351.049C253.306 352.032 252.963 353.015 252.609 354.028C252.3 354.912 251.99 355.796 251.671 356.707C250.86 359.082 250.86 359.082 251 362C262.55 362 274.1 362 286 362C287.776 355.784 289.033 349.786 290.125 343.438C290.307 342.423 290.488 341.408 290.676 340.362C290.847 339.375 291.019 338.388 291.195 337.371C291.35 336.484 291.505 335.596 291.665 334.682C292.124 331.458 292.124 331.458 292 326C282.43 326 272.86 326 263 326ZM306 326C304.356 332.577 303.026 339.025 301.875 345.688C301.693 346.707 301.511 347.726 301.324 348.776C301.153 349.761 300.981 350.747 300.805 351.762C300.65 352.649 300.495 353.535 300.335 354.448C299.891 357.398 299.891 357.398 300 362C311.88 362 323.76 362 336 362C336 350.12 336 338.24 336 326C326.1 326 316.2 326 306 326ZM349 326C349 337.88 349 349.76 349 362C360.88 362 372.76 362 385 362C384.264 353.415 384.264 353.415 383.062 344.965C382.89 343.972 382.717 342.979 382.539 341.955C382.361 340.96 382.183 339.964 382 338.938C381.822 337.907 381.644 336.877 381.461 335.815C380.707 330.759 380.707 330.759 379 326C369.1 326 359.2 326 349 326ZM392 326C392.831 330.967 393.667 335.934 394.509 340.899C394.794 342.59 395.078 344.28 395.361 345.971C395.767 348.397 396.178 350.822 396.59 353.246C396.716 354.007 396.842 354.767 396.972 355.551C397.317 359.073 397.317 359.073 399 362C401.594 362.089 404.16 362.116 406.754 362.098C407.529 362.097 408.305 362.095 409.104 362.094C411.59 362.088 414.076 362.076 416.562 362.063C418.244 362.058 419.926 362.053 421.607 362.049C425.738 362.038 429.869 362.021 434 362C432.483 354.243 430.057 346.95 427.437 339.5C427.026 338.309 426.614 337.118 426.189 335.891C424.746 330.578 424.746 330.578 422 326C419.781 325.913 417.56 325.893 415.34 325.903C414.675 325.904 414.011 325.906 413.326 325.907C411.197 325.913 409.067 325.925 406.937 325.938C405.497 325.943 404.056 325.947 402.615 325.952C399.077 325.963 395.538 325.98 392 326ZM246 375C242.873 382.505 239.85 389.903 237.187 397.563C236.876 398.437 236.565 399.312 236.244 400.213C235.951 401.052 235.658 401.89 235.355 402.754C234.963 403.873 234.963 403.873 234.563 405.014C233.864 407.137 233.864 407.137 234 410C248.52 410 263.04 410 278 410C279.485 402.173 279.485 402.173 281 394.188C281.313 392.545 281.626 390.901 281.949 389.208C282.193 387.916 282.436 386.624 282.687 385.293C282.817 384.618 282.947 383.942 283.08 383.246C283.606 380.443 284 377.861 284 375C271.46 375 258.92 375 246 375ZM297 375C296.01 380.404 295.02 385.808 294 391.375C293.687 393.08 293.373 394.785 293.051 396.541C292.805 397.889 292.558 399.238 292.312 400.586C292.183 401.289 292.053 401.991 291.92 402.714C291.238 406.334 291.238 406.334 291 410C305.85 410 320.7 410 336 410C336 398.45 336 386.9 336 375C323.13 375 310.26 375 297 375ZM349 375C349 386.55 349 398.1 349 410C363.85 410 378.7 410 394 410C393.196 405.153 392.391 400.307 391.562 395.313C391.311 393.792 391.059 392.271 390.799 390.705C390.599 389.499 390.398 388.293 390.191 387.051C389.987 385.82 389.783 384.59 389.572 383.322C389.093 380.54 388.554 377.768 388 375C375.13 375 362.26 375 349 375ZM401 375C402.365 386.854 404.648 398.241 407 410C421.52 410 436.04 410 451 410C450.169 405.847 449.123 402.19 447.75 398.203C447.532 397.569 447.314 396.935 447.089 396.282C446.63 394.95 446.169 393.619 445.707 392.288C444.998 390.244 444.295 388.199 443.594 386.153C443.146 384.857 442.698 383.561 442.25 382.266C441.843 381.088 441.435 379.91 441.016 378.697C440.256 376.119 440.256 376.119 439 375C436.188 374.912 433.401 374.885 430.59 374.903C429.327 374.905 429.327 374.905 428.038 374.907C425.338 374.913 422.638 374.925 419.937 374.938C418.111 374.943 416.285 374.947 414.459 374.952C409.973 374.963 405.486 374.98 401 375ZM340 423C340 429.93 340 436.86 340 444C341.65 444 343.3 444 345 444C345 437.07 345 430.14 345 423C343.35 423 341.7 423 340 423ZM146 457C145.328 458.289 144.663 459.582 144 460.875C143.629 461.595 143.257 462.314 142.875 463.055C141.863 464.949 141.863 464.949 142 467C155.53 467 169.06 467 183 467C181.702 461.567 181.702 461.567 179 457C176.552 456.912 174.132 456.885 171.684 456.903C170.953 456.904 170.221 456.906 169.468 456.907C167.125 456.913 164.781 456.925 162.437 456.938C160.852 456.943 159.267 456.947 157.682 456.952C153.788 456.963 149.894 456.98 146 457ZM323 457C323 459.64 323 462.28 323 465C335.87 465 348.74 465 362 465C362 462.36 362 459.72 362 457C349.13 457 336.26 457 323 457Z" fill="white"/>
<path d="M398.75 132.626C409.293 140.86 416.252 151.596 418 165.001C419.031 178.221 415.29 190.076 407.031 200.481C398.982 209.186 388.408 214.376 376.633 215.251C361.43 215.748 349.851 211.504 338.75 201.251C330.965 193.094 326.995 181.753 326.625 170.563C327.076 156.814 332.257 146.202 341.547 136.298C357.243 121.601 381.247 120.781 398.75 132.626ZM348 149.001C341.911 156.663 339.002 164.164 340 174.001C341.646 183.5 346.48 190.447 354 196.376C362.501 202.183 369.653 203.277 380 202.001C389.196 199.017 396.703 193.629 401.312 185.063C405.621 175.484 406.01 167.042 402.449 157.071C398.224 148.12 391.166 142.404 382 139.001C369.42 135.172 356.625 139.394 348 149.001Z" fill="white"/>
<path d="M52.9591 103.742C53.6636 103.739 54.3682 103.735 55.094 103.732C57.4274 103.723 59.7605 103.729 62.0939 103.735C63.7223 103.734 65.3508 103.732 66.9792 103.73C70.399 103.727 73.8187 103.731 77.2384 103.74C81.5947 103.752 85.9507 103.745 90.3069 103.733C93.6752 103.726 97.0435 103.728 100.412 103.733C102.016 103.735 103.62 103.733 105.224 103.728C132.16 103.667 132.16 103.667 140.531 111.419C144.986 116.456 146.489 120.996 146.313 127.595C145.587 133.183 143.346 138.15 139.125 141.938C133.403 145.715 129.105 146.406 122.399 145.54C116.673 144.253 113.294 140.636 110 136.001C108.886 133.772 108.835 132.47 108.813 130.001C108.798 129.3 108.784 128.598 108.77 127.876C109 126.001 109 126.001 111 124.001C116.118 123.246 116.118 123.246 119 124.001C120.636 125.676 121.684 127.317 122.797 129.372C123.902 131.162 123.902 131.162 125.996 131.821C128.186 132.23 128.186 132.23 130.313 130.438C132.281 128.075 132.281 128.075 132.063 124.938C131.24 121.888 131.24 121.888 128.813 120.188C123.522 117.955 118.275 117.874 112.589 117.859C111.873 117.856 111.157 117.852 110.419 117.849C108.874 117.841 107.329 117.836 105.784 117.832C103.337 117.825 100.891 117.809 98.4445 117.791C91.4925 117.739 84.5407 117.69 77.5885 117.675C73.3279 117.665 69.0678 117.636 64.8075 117.594C63.1864 117.581 61.5653 117.576 59.9441 117.579C57.6795 117.581 55.4164 117.559 53.152 117.531C51.8643 117.525 50.5767 117.519 49.2501 117.513C46.0001 117.001 46.0001 117.001 43.5492 115.194C42.0001 113.001 42.0001 113.001 42.0626 109.376C43.7547 103.284 47.3494 103.749 52.9591 103.742Z" fill="white"/>
<path d="M118.184 32.735C123.847 35.7069 126.981 40.0821 129 46.0007C129.691 52.1631 129.729 57.8285 126 63.0007C119.743 69.565 112.67 72.7684 103.572 73.1411C101.603 73.1513 101.603 73.1513 99.5953 73.1618C98.5041 73.1692 98.5041 73.1692 97.3909 73.1768C94.9976 73.1914 92.6044 73.1982 90.211 73.2038C88.5438 73.2095 86.8766 73.2153 85.2094 73.2211C81.721 73.2315 78.2326 73.2374 74.7442 73.2409C70.2706 73.2464 65.7973 73.2705 61.3237 73.2989C57.8837 73.3175 54.4437 73.3227 51.0036 73.3242C49.3538 73.3273 47.7039 73.3353 46.0541 73.3484C43.7512 73.3654 41.449 73.3636 39.146 73.3571C37.8354 73.3608 36.5248 73.3644 35.1745 73.3682C32.0001 73.0007 32.0001 73.0007 30.0808 71.6971C28.2268 68.7868 28.5839 66.3297 29.0001 63.0007C31.3319 60.5211 32.7697 60.0287 36.1674 59.6154C37.4164 59.6103 38.6655 59.6052 39.9524 59.6C40.9898 59.5896 40.9898 59.5896 42.0482 59.5789C44.3304 59.5589 46.6123 59.5594 48.8946 59.5593C50.4864 59.5475 52.0781 59.5341 53.6699 59.5192C57.861 59.483 62.052 59.4628 66.2432 59.4477C72.9404 59.4229 79.6375 59.383 86.3346 59.3258C88.6671 59.3095 90.9994 59.3057 93.332 59.3028C94.7745 59.293 96.217 59.2827 97.6595 59.2719C98.9109 59.2676 100.162 59.2633 101.452 59.2589C105.934 58.9327 110.103 58.1272 114 55.8132C115.713 52.7078 114.899 50.2983 114 47.0007C112.297 45.2736 112.297 45.2736 110 45.0007C106.657 45.8364 105.926 47.1184 104.063 50.0632C102 53.0007 102 53.0007 99.5626 54.0632C96.0955 53.9786 94.5668 53.3474 92.0001 51.0007C91.1788 46.2558 91.9839 42.7078 94.6251 38.6452C100.601 31.4983 109.402 29.7818 118.184 32.735Z" fill="white"/>
<path d="M16.6425 81.611C17.4072 81.6057 18.1719 81.6005 18.9598 81.5951C21.4838 81.5819 24.0072 81.5906 26.5312 81.6007C28.2871 81.5987 30.043 81.5958 31.7989 81.592C35.4775 81.5876 39.1559 81.594 42.8344 81.6081C47.549 81.6251 52.2631 81.6153 56.9777 81.5973C60.6031 81.5865 64.2284 81.5899 67.8538 81.5977C69.5922 81.5997 71.3305 81.5973 73.0688 81.5903C75.4986 81.5827 77.9276 81.5943 80.3574 81.611C81.4345 81.6019 81.4345 81.6019 82.5333 81.5926C85.6188 81.6319 87.7139 81.8372 90.4229 83.3711C92.5275 85.5437 92.8535 86.9974 93 89.9992C92.0227 92.7055 91.5948 93.7017 89 94.9992C86.4529 95.1077 83.9327 95.1565 81.385 95.1603C80.2067 95.1677 80.2067 95.1677 79.0046 95.1753C76.4002 95.19 73.7958 95.1968 71.1914 95.2023C69.3854 95.208 67.5794 95.2138 65.7734 95.2196C61.9846 95.2301 58.1958 95.2359 54.407 95.2394C49.5465 95.2449 44.6864 95.2689 39.826 95.2974C36.0951 95.316 32.3644 95.3212 28.6335 95.3227C26.8413 95.3258 25.0491 95.3338 23.2569 95.3469C20.7525 95.3639 18.2488 95.3621 15.7444 95.3556C15.0009 95.3648 14.2574 95.374 13.4914 95.3835C10.5767 95.3598 8.50924 95.3384 6.04329 93.6956C4.24549 90.7724 4.58556 88.3144 4.99997 84.9992C8.3129 81.3767 12.0388 81.572 16.6425 81.611Z" fill="white"/>
<path d="M323 182C325.073 184.333 324.993 185.893 325.188 189C323.858 192.359 323.54 192.601 320.438 194.063C318.639 194.747 316.823 195.386 315 196C314.369 196.222 313.738 196.443 313.088 196.67C310.982 197.404 308.868 198.113 306.75 198.813C305.722 199.16 305.722 199.16 304.674 199.514C300.766 200.745 297.92 201.365 294 200C292.125 198.313 292.125 198.313 291 196C291 192.938 291 192.938 292 190C296.291 186.786 301.327 185.36 306.375 183.75C307.2 183.469 308.025 183.188 308.875 182.899C314.039 181.243 317.71 180.626 323 182Z" fill="white"/>
<path d="M451 139.999C453.062 141.624 453.062 141.624 454 143.999C453.935 147.195 453.827 149.166 451.527 151.484C447.776 153.734 443.79 154.901 439.625 156.187C438.787 156.46 437.949 156.732 437.086 157.013C432.64 158.408 428.712 159.52 424 158.999C421.209 157.016 420.174 155.87 419.5 152.499C420.187 149.066 421.257 148.204 424 145.999C427.008 144.658 430.1 143.701 433.25 142.749C434.071 142.481 434.892 142.213 435.738 141.937C441.006 140.301 445.483 139.571 451 139.999Z" fill="white"/>
<path d="M352 89.001C355.488 92.4082 356.685 97.1725 358.188 101.688C358.46 102.454 358.733 103.219 359.014 104.007C360.741 109.146 362.157 114.58 361 120.001C357.53 122.314 356.075 122.341 352 122.001C348.589 119.727 348.372 118.965 347.176 115.204C346.87 114.245 346.564 113.286 346.248 112.298C345.939 111.292 345.631 110.287 345.313 109.251C344.992 108.261 344.672 107.271 344.342 106.251C341.436 96.9817 341.436 96.9817 342 92.001C344.276 87.9841 347.793 88.4751 352 89.001Z" fill="white"/>
<path d="M393 218C397.22 222.12 398.592 226.944 400.25 232.437C400.518 233.271 400.786 234.104 401.063 234.963C402.439 239.406 403.445 243.295 403 248C401.938 249.875 401.938 249.875 400 251C393.867 251.657 393.867 251.657 391.397 249.785C388.55 246.149 387.612 241.479 386.25 237.125C385.921 236.131 385.593 235.137 385.254 234.113C384.948 233.15 384.643 232.187 384.328 231.195C384.049 230.319 383.769 229.442 383.481 228.539C382.806 224.975 383.192 222.233 385.188 219.187C387.962 217.37 389.763 217.471 393 218Z" fill="white"/>
<path d="M418 202C420.738 203.758 420.738 203.758 423.312 206.125C424.175 206.891 425.037 207.657 425.926 208.446C428.337 211.415 428.897 213.2 429 217C426.938 219.938 426.938 219.938 424 222C420.501 222.311 418.716 221.527 415.91 219.461C412.791 216.81 410.28 214.421 408 211C408.188 207.438 408.188 207.438 409 204C412.52 201.654 413.855 201.496 418 202Z" fill="white"/>
<path d="M390 98.0005C391.875 99.063 391.875 99.063 393 101.001C393.765 107.117 392.292 113.313 390 119.001C387 121.001 387 121.001 383.437 120.813C380 120.001 380 120.001 378 117.001C377.784 110.541 378.921 104.665 382 99.0005C384.799 97.6012 386.905 97.7479 390 98.0005Z" fill="white"/>
<path d="M417.875 113.188C421 114 421 114 422.938 115.125C424.633 118.116 424.644 119.586 424 123C421.922 125.926 419.529 128.461 417 131C416.252 131.847 416.252 131.847 415.488 132.711C414 134 414 134 410.5 134.438C407 134 407 134 405 132.375C403.636 129.135 404.128 127.389 405 124C408.35 118.895 411.775 114.467 417.875 113.188Z" fill="white"/>
<path d="M364 220C365.66 221.223 365.66 221.223 367 223C367.471 229.423 365.948 235.35 363 241C362 242 362 242 358.625 242.25C355 242 355 242 353.063 240.938C350.092 235.52 352.563 228.956 353.953 223.355C355 221 355 221 356.949 219.664C359.694 218.775 361.279 219.093 364 220Z" fill="white"/>
<path d="M325.375 118.875C330.717 121.605 335.081 125.532 337.188 131.188C337 134 337 134 335.438 136.375C333 138 333 138 330.25 138.688C324.591 137.491 320.922 133.26 317.262 128.957C316 127 316 127 316 123.938C317 121 317 121 319.125 118.938C322 118 322 118 325.375 118.875Z" fill="white"/>
<path d="M334 205.625C337 206 337 206 338.813 207.188C340.405 209.617 340.932 211.07 341 214C339.438 216.938 339.438 216.938 337 220C336.551 220.566 336.103 221.132 335.641 221.715C332.869 224.881 331.608 225.907 327.313 226.562C324 226 324 226 322.063 224.875C320.367 221.884 320.356 220.414 321 217C323.078 214.074 325.471 211.539 328 209C328.509 208.434 329.018 207.868 329.543 207.285C331 206 331 206 334 205.625Z" fill="white"/>
<path d="M313.125 150.124C314.344 150.395 315.564 150.666 316.82 150.945C319.82 151.939 321.223 152.438 323 154.999C323.425 159.077 323.313 160.53 321 163.999C316.88 165.419 313.559 164.759 309.375 163.812C308.248 163.571 307.122 163.33 305.961 163.081C302.687 161.885 301.616 161.047 300 157.999C300 154.937 300 154.937 301 151.999C305.22 148.504 307.943 148.903 313.125 150.124Z" fill="white"/>
<path d="M440.074 177.241C442 177.999 442 177.999 444.125 180.312C445.151 183.464 445.216 184.918 444 187.999C442.5 189.874 442.5 189.874 440 190.999C433.933 191.19 428.482 189.446 423 186.999C421.601 184.2 421.747 182.094 422 178.999C425.048 173.284 434.86 175.962 440.074 177.241Z" fill="white"/>
</svg>
