<svg width="889" height="341" viewBox="0 0 889 341" fill="none" xmlns="http://www.w3.org/2000/svg">
<path d="M444.537 0C444.338 0.330111 443.669 0.948787 443.002 0.947799C429.143 0.927277 415.284 0.836433 401.215 0.379742C415.36 2.98023e-08 429.714 0 444.537 0Z" fill="white"/>
<path d="M596.538 0C591.145 0.252972 585.285 0.505943 579.215 0.379457C584.694 0 590.382 0 596.538 0Z" fill="white"/>
<path d="M889.005 74.5313C885.895 78.9001 881.702 79.2105 877.086 79.068C866.438 78.7394 855.812 78.6282 845.655 82.9444C835.634 87.2029 829.092 94.1164 828.077 105.198C827.37 112.912 827.06 120.688 827.05 128.437C826.97 189.088 827.006 249.739 827.005 310.391C827.005 318.822 824.793 321 816.238 321C797.41 321 778.581 321.004 759.753 320.998C752.471 320.996 749.037 317.58 749.018 310.15C748.977 293.821 749.005 277.492 749.005 261.163C749.005 212.009 748.851 162.854 749.067 113.701C749.184 87.1875 755.374 62.6586 773.389 41.9731C787.37 25.92 803.858 13.6425 823.949 6.73138C831.368 4.17933 839.442 3.54151 847.204 1.96471C848.098 1.78305 848.906 1.17642 849.88 0.383395C850.005 -8.88109e-06 850.505 -8.85129e-06 850.934 0.401644C853.502 0.868862 855.655 0.799852 857.777 1.02277C868.215 2.1192 879.34 -2.13418 889.005 4.99999C889.005 28.0209 889.005 51.0418 889.005 74.5313Z" fill="#2D4B74"/>
<path d="M601.589 0C611.394 1.98172 612.461 8.38628 612.183 16.7801C611.599 34.4219 612.019 52.0965 611.998 69.7576C611.991 76.2968 609.262 78.978 602.779 79.0033C592.247 79.0443 581.66 78.2635 571.449 81.983C558.755 86.6065 550.835 96.0021 550.892 110.454C551.15 176.432 551.018 242.412 550.96 308.391C550.957 310.975 550.544 313.629 549.857 316.123C548.993 319.266 546.777 321.014 543.318 321.01C522.491 320.986 501.664 321.046 480.838 320.964C475.958 320.945 473.012 317.724 473.011 312.863C473.002 242.051 472.699 171.238 473.207 100.431C473.344 81.2518 480.394 63.5114 491.702 48.024C503.373 32.0387 518.683 19.9095 536.331 11.0379C546.885 5.73242 558.311 2.87894 570.162 1.95602C571.372 1.86173 572.536 1.16476 573.863 0.373727C575.394 -2.98023e-08 576.783 0 578.798 0.379457C585.284 0.505943 591.145 0.252972 597.005 0C598.394 0 599.783 0 601.589 0Z" fill="#79AF42"/>
<path d="M449.589 0C451.932 0.639343 453.816 1.54169 455.795 1.86624C460.737 2.67699 462.065 5.75554 462.046 10.3133C461.955 32.1416 462.006 53.9705 462.006 75.7992C462.006 104.127 462.258 132.457 461.925 160.78C461.662 183.101 454.079 202.932 440.141 220.448C428.437 235.156 413.725 246.03 397.112 254.261C385.76 259.885 373.337 262.629 360.66 262.904C343.005 263.286 325.336 263.007 307.673 262.996C300.721 262.992 298.016 260.358 298.011 253.549C297.996 234.219 298.06 214.89 297.976 195.561C297.947 188.835 301.223 184.513 308.718 184.838C322.023 185.415 335.372 184.94 348.702 185.021C357.672 185.075 365.693 182.432 373.149 177.487C380.516 172.601 383.904 165.563 383.931 157.146C384.085 109.49 383.951 61.8332 384.12 14.1772C384.132 10.7397 384.905 6.60974 386.928 4.08948C388.618 1.98422 392.66 1.76672 395.833 0.356614C397.395 1.99676e-06 398.783 2.05636e-06 400.799 0.379744C415.284 0.836435 429.143 0.927279 443.002 0.947801C443.67 0.948789 444.338 0.330113 445.006 2.02656e-06C446.395 2.02656e-06 447.783 2e-06 449.589 0Z" fill="#79AF42"/>
<path d="M734.537 0C736.339 2.69685 738.717 5.3533 738.823 8.0976C739.259 19.3874 739.024 30.7038 738.998 42.0104C738.985 47.6697 737.708 48.9871 732.131 48.9905C700.373 49.01 668.615 48.9585 636.857 49.0499C632.652 49.062 630.896 47.5577 630.951 43.2482C631.107 30.9459 630.89 18.6381 631.128 6.33841C631.164 4.45489 632.832 2.60291 633.875 0.368173C667.36 1.07288e-06 700.714 1e-06 734.537 0Z" fill="#2D4B74"/>
<path d="M642.022 60C670.845 60 699.172 60.1928 727.494 59.8742C735.275 59.7867 739.154 64.0652 739.121 71.2547C738.899 119.74 739.413 168.231 738.825 216.71C738.551 239.375 731.701 260.292 717.222 278.385C705.453 293.09 690.919 304.375 674.304 312.673C664.539 317.55 653.768 320.543 642.608 320.981C631.86 321.404 621.107 321.777 610.353 321.964C602.265 322.104 599.007 318.734 599.006 310.752C599.004 292.424 598.998 274.096 599.008 255.768C599.013 246.089 601.136 244.1 610.874 243.972C620.676 243.843 630.468 244.742 640.096 241.149C653.412 236.18 660.626 227.863 660.928 212.228C661.266 194.741 661.005 177.243 661.005 159C653.694 159 646.448 159 639.201 159C637.035 159 634.859 158.87 632.705 159.027C628.317 159.347 626.928 157.227 626.956 153.075C627.073 135.581 627.005 118.085 627.005 100.59C627.005 89.0934 627.133 77.5946 626.941 66.1011C626.867 61.6203 628.478 59.6338 633.03 59.9623C635.848 60.1657 638.693 60 642.022 60Z" fill="#2D4B74"/>
<path d="M140.316 245.791C142.751 246.713 144.89 247.904 147.035 247.916C170.689 248.05 194.344 248.015 217.998 247.99C224.432 247.983 228.002 244.354 228.004 237.968C228.009 222.31 227.987 206.651 228.016 190.993C228.026 185.352 229.368 184.047 235.033 184.007C239.53 183.975 244.032 183.883 248.524 184.042C252.098 184.168 254.138 185.621 254.087 189.845C253.887 206.334 254.376 222.837 253.905 239.315C253.397 257.096 243.209 267.452 227.213 272.706C223.104 274.056 218.41 273.923 213.983 273.948C192.994 274.065 172.004 274.081 151.016 273.936C146.458 273.905 141.905 273.065 137.006 272.563C137.006 275.607 137.033 278.754 137.001 281.9C136.871 294.427 130.938 303.359 120.606 310.219C112.206 315.796 103.09 315.018 93.9457 314.849C92.95 314.83 91.1947 312.905 91.1455 311.804C90.8708 305.653 90.8448 299.474 91.1612 293.327C91.2208 292.169 93.057 290.461 94.3476 290.152C96.5539 289.624 98.9824 290.102 101.308 289.979C108.266 289.612 111.995 285.676 111.999 278.69C112.015 249.206 112.115 219.72 111.897 190.237C111.861 185.391 113.424 183.702 118.085 183.949C122.57 184.186 127.08 184.089 131.575 183.973C135.396 183.875 137.156 185.117 137.093 189.385C136.869 204.541 136.819 219.705 137.143 234.857C137.22 238.428 139.018 241.961 140.316 245.791Z" fill="#76AC42"/>
<path d="M446.813 273C453.977 272.468 455.195 274.096 455.069 280.464C454.843 291.954 454.881 303.454 455.067 314.946C455.141 319.494 453.354 321.067 448.876 321.058C400.898 320.965 352.92 321.008 304.942 320.99C299.356 320.987 298.028 319.605 298.014 313.913C297.985 302.584 297.977 291.256 298.017 279.928C298.038 273.955 299.025 273.003 304.903 273.002C352.049 272.998 399.194 273 446.813 273Z" fill="#79AF42"/>
<path d="M86.3753 286.226C85.4209 296.696 79.2837 303.36 71.7367 309.027C65.1444 313.978 57.5678 315.391 49.4367 315.057C42.616 314.778 35.7668 314.803 28.9455 315.076C25.102 315.23 23.9881 313.452 24.0011 310.12C24.0214 304.954 24.0066 299.788 24.0087 294.622C24.01 291.497 25.1213 289.803 28.7031 289.935C35.0268 290.168 41.3659 289.944 47.6974 290.013C57.5869 290.12 63.6007 285.764 61.4608 273C48.755 273 35.9652 273.001 23.1754 273C10.0552 272.999 0.0121963 262.833 0.00618435 249.541C0.00113635 238.376 -0.00545842 227.211 0.00776458 216.046C0.0253646 201.185 14.7585 186.184 29.54 184.858C40.6181 183.865 51.5066 183.49 62.4179 185.955C74.1623 188.609 84.4173 200.461 85.8029 211.17C87.0716 220.975 86.8998 230.995 86.9515 240.923C87.0295 255.899 86.7499 270.877 86.3753 286.226ZM25.0051 226.546C25.0051 233.626 25.0051 240.707 25.0051 247.598C37.7761 247.598 49.8178 247.598 62.0035 247.598C62.0035 238.715 62.1862 230.227 61.9511 221.752C61.7243 213.576 57.7911 210.001 49.7176 210C46.7225 210 43.7225 210.112 40.7333 209.981C27.5358 209.399 23.8301 213.321 25.0051 226.546Z" fill="#76AC42"/>
<path d="M841.387 138.863C840.382 137.296 839.056 135.977 839.128 134.739C839.602 126.592 837.96 118.462 840.768 110.26C844.471 99.4464 855.918 92.7469 865.07 92.066C870.039 91.6965 875.059 91.9209 880.053 92.023C884.798 92.12 886.944 94.2215 886.978 98.9787C887.061 110.635 886.985 122.293 887.018 133.951C887.027 137.491 885.246 139.865 881.877 139.913C868.892 140.099 855.903 139.957 842.916 139.893C842.514 139.891 842.114 139.407 841.387 138.863Z" fill="#2D4B74"/>
<path d="M231.005 290C238.99 290 246.477 290.088 253.959 289.959C256.989 289.906 258.066 291.071 258.046 294.071C257.952 307.876 257.915 321.683 258.07 335.486C258.107 338.808 256.56 339.936 253.714 339.973C248.226 340.044 242.736 340.046 237.248 339.972C234.374 339.933 232.839 338.715 232.943 335.436C233.153 328.822 233.006 322.197 233.006 315.058C224.923 315.058 217.205 315.058 208.489 315.058C208.489 307.496 208.273 300.435 208.693 293.412C208.766 292.193 211.464 290.264 213.051 290.156C218.846 289.762 224.684 290 231.005 290Z" fill="#76AC42"/>
</svg>
