<svg width="512" height="512" viewBox="0 0 512 512" fill="none" xmlns="http://www.w3.org/2000/svg">
<g clip-path="url(#clip0_137_199)">
<mask id="mask0_137_199" style="mask-type:luminance" maskUnits="userSpaceOnUse" x="0" y="0" width="512" height="512">
<path d="M512 0H0V512H512V0Z" fill="white"/>
</mask>
<g mask="url(#mask0_137_199)">
<path d="M301 74.0001C314.793 85.9828 325.828 102.898 327.185 121.536C327.851 135.349 327.422 148.468 321 161C321.671 161.002 322.342 161.003 323.034 161.005C339.394 161.042 355.754 161.101 372.114 161.184C380.026 161.224 387.937 161.256 395.849 161.271C402.748 161.284 409.648 161.311 416.547 161.355C420.197 161.377 423.847 161.393 427.497 161.392C431.581 161.391 435.664 161.421 439.748 161.454C441.545 161.447 441.545 161.447 443.379 161.439C453.477 161.564 461.32 163.613 468.527 170.926C472.119 175.985 473.544 181.604 474.587 187.635C474.789 188.739 474.789 188.739 474.994 189.864C475.438 192.305 475.869 194.748 476.301 197.192C476.616 198.943 476.933 200.694 477.25 202.445C478.103 207.167 478.946 211.892 479.787 216.617C480.667 221.549 481.556 226.48 482.444 231.412C483.909 239.553 485.368 247.696 486.824 255.839C488.739 266.555 490.668 277.269 492.602 287.982C493.876 295.041 495.148 302.101 496.42 309.16C496.723 310.842 497.026 312.525 497.329 314.207C498.191 318.992 499.052 323.777 499.91 328.563C500.167 329.995 500.425 331.427 500.683 332.859C508.006 373.488 508.006 373.488 502.332 382.43C497.113 388.583 491.044 392.657 483 394C481.471 394.093 479.94 394.143 478.408 394.154C477.517 394.163 476.625 394.171 475.707 394.18C474.259 394.187 474.259 394.187 472.781 394.193C471.755 394.201 470.728 394.209 469.67 394.218C466.28 394.243 462.89 394.259 459.5 394.274C458.341 394.279 457.183 394.284 455.989 394.29C449.862 394.316 443.736 394.336 437.609 394.35C432.536 394.364 427.464 394.392 422.391 394.432C416.264 394.481 410.138 394.506 404.011 394.513C401.676 394.52 399.341 394.535 397.007 394.559C393.744 394.591 390.482 394.591 387.219 394.584C386.253 394.6 385.288 394.616 384.293 394.633C379.701 394.591 377.658 394.499 373.9 391.651C372 389 372 389 371.375 386C372.243 381.835 373.617 380.577 377 378C380.34 377.275 383.612 377.34 387.019 377.388C388.527 377.38 388.527 377.38 390.066 377.371C393.387 377.358 396.707 377.379 400.027 377.399C402.338 377.393 404.648 377.385 406.958 377.374C413.04 377.351 419.122 377.356 425.204 377.368C434.936 377.386 444.667 377.377 454.398 377.342C457.797 377.336 461.194 377.349 464.592 377.364C466.678 377.361 468.765 377.358 470.851 377.353C471.794 377.362 472.737 377.372 473.709 377.381C478.88 377.35 482.546 376.941 487 374C488.263 371.474 488.133 369.697 488.125 366.875C488.129 365.51 488.129 365.51 488.133 364.117C487.974 360.396 487.462 356.696 487 353C334.54 353 182.08 353 25.0002 353C22.9404 364.172 22.9404 364.172 25.8127 374.625C29.3886 376.873 32.1962 377.126 36.3245 377.128C37.4357 377.131 38.547 377.134 39.6919 377.137C40.9177 377.135 42.1435 377.133 43.4065 377.131C45.354 377.135 45.354 377.135 47.3408 377.138C50.197 377.142 53.0532 377.144 55.9094 377.143C60.5561 377.141 65.2028 377.147 69.8495 377.153C76.5954 377.161 83.3414 377.166 90.0874 377.169C100.746 377.174 111.404 377.191 122.062 377.21C125.707 377.217 129.352 377.223 132.996 377.229C134.363 377.232 134.363 377.232 135.757 377.234C146.128 377.252 156.499 377.268 166.871 377.283C167.819 377.284 168.767 377.286 169.744 377.287C185.119 377.309 200.493 377.32 215.868 377.327C231.643 377.336 247.418 377.359 263.193 377.395C272.929 377.418 282.665 377.427 292.401 377.421C299.069 377.418 305.738 377.429 312.407 377.452C316.257 377.465 320.108 377.471 323.958 377.459C328.128 377.447 332.297 377.466 336.467 377.488C337.69 377.479 338.914 377.471 340.175 377.462C341.288 377.473 342.402 377.484 343.55 377.495C344.994 377.497 344.994 377.497 346.468 377.498C349.737 378.146 350.932 379.445 353 382C353.566 384 353.566 384 353.562 386C353.595 386.99 353.595 386.99 353.629 388C352.644 391.132 350.676 392.2 348 394C345.197 394.481 345.197 394.481 342.108 394.454C340.947 394.454 339.787 394.454 338.591 394.453C337.348 394.433 336.105 394.412 334.824 394.391C332.904 394.382 332.904 394.382 330.945 394.374C327.553 394.358 324.162 394.319 320.77 394.275C317.304 394.234 313.839 394.215 310.373 394.195C303.581 394.155 296.792 394.076 290 394C290 402.58 290 411.16 290 420C293.094 419.897 296.188 419.794 299.375 419.688C308.393 419.585 314.925 420.405 321.816 426.645C328.006 433.252 329.464 439.653 329.188 448.438C329.174 449.265 329.16 450.092 329.146 450.944C329.111 452.963 329.058 454.982 329 457C329.564 456.984 330.128 456.969 330.709 456.953C333.306 456.89 335.903 456.851 338.5 456.813C339.83 456.775 339.83 456.775 341.188 456.736C349.494 456.645 356.14 458.4 362.395 464.125C369.323 472.217 370.193 481.188 370.25 491.375C370.281 492.756 370.281 492.756 370.312 494.164C370.345 499.881 369.949 504.039 367 509C362.738 512.422 358.63 512.425 353.384 512.381C352.084 512.388 352.084 512.388 350.758 512.395C347.856 512.407 344.953 512.398 342.051 512.388C339.97 512.392 337.888 512.398 335.807 512.404C330.154 512.418 324.502 512.413 318.849 512.403C312.936 512.396 307.023 512.403 301.111 512.407C291.181 512.413 281.251 512.406 271.321 512.391C259.837 512.375 248.353 512.38 236.869 512.397C227.014 512.41 217.158 512.412 207.302 512.404C201.414 512.4 195.526 512.399 189.637 512.409C184.102 512.418 178.567 512.412 173.031 512.394C170.998 512.39 168.965 512.392 166.932 512.398C164.16 512.406 161.388 512.396 158.616 512.381C157.809 512.388 157.002 512.395 156.171 512.401C151.611 512.354 148.593 511.888 145 509C141.662 503.322 141.541 498.168 141.625 491.688C141.613 490.801 141.602 489.915 141.59 489.002C141.633 479.108 143.877 470.171 151 463C156.363 458.846 160.954 456.859 167.766 456.902C168.655 456.906 169.545 456.909 170.461 456.912C171.381 456.921 172.302 456.929 173.25 456.938C174.654 456.944 174.654 456.944 176.086 456.951C178.391 456.963 180.695 456.98 183 457C182.913 455.225 182.913 455.225 182.824 453.414C182.472 443.222 182.468 435.136 189.645 427.176C196.611 420.682 203.23 419.556 212.438 419.813C217.171 419.905 217.171 419.905 222 420C222 411.42 222 402.84 222 394C218.403 394.01 218.403 394.01 214.734 394.02C192.147 394.082 169.561 394.126 146.974 394.156C135.362 394.171 123.75 394.192 112.137 394.226C102.015 394.256 91.8928 394.276 81.7704 394.282C76.4117 394.286 71.0532 394.296 65.6946 394.317C60.6476 394.338 55.6007 394.344 50.5537 394.339C48.7046 394.34 46.8555 394.346 45.0065 394.358C23.4107 394.486 23.4107 394.486 14.0002 387C9.03238 382.005 6.77043 377.496 6.68457 370.397C6.69436 369.343 6.69435 369.343 6.70434 368.268C6.70941 367.519 6.71447 366.771 6.71969 366C6.87985 357.747 8.23513 349.812 9.73462 341.715C10.0447 339.978 10.3534 338.242 10.661 336.505C11.3605 332.571 12.0695 328.639 12.7846 324.708C14.0118 317.954 15.214 311.195 16.4137 304.436C18.8586 290.664 21.3262 276.897 23.8067 263.132C24.0769 261.632 24.3471 260.132 24.6174 258.633C24.7515 257.888 24.8857 257.144 25.0239 256.377C26.126 250.258 27.2221 244.139 28.3173 238.02C29.3894 232.031 30.4659 226.042 31.5458 220.055C32.1841 216.516 32.8206 212.976 33.4523 209.435C34.1509 205.52 34.8589 201.607 35.5676 197.694C35.7702 196.55 35.9729 195.407 36.1816 194.229C40.1148 172.68 40.1148 172.68 49.8713 165.652C57.177 161.269 64.4417 161.782 72.6992 161.76C74.9268 161.75 77.1536 161.719 79.3811 161.688C80.8049 161.681 82.2287 161.676 83.6525 161.672C84.9415 161.663 86.2305 161.653 87.5585 161.644C91.2188 162.023 93.0955 162.788 96.0002 165C96.883 166.867 96.883 166.867 97.1252 168.875C97.2309 169.533 97.3366 170.19 97.4455 170.867C96.7172 174.356 94.6979 175.78 92.0002 178C88.6662 178.58 88.6662 178.58 84.9064 178.531C84.2373 178.535 83.5682 178.538 82.8787 178.541C80.0343 178.554 77.1915 178.51 74.3474 178.47C72.2624 178.45 70.1789 178.459 68.094 178.469C66.8532 178.453 65.6125 178.437 64.3342 178.42C60.0253 179.17 58.6305 180.558 56.0002 184C54.9202 186.676 54.9202 186.676 54.4885 189.57C54.288 190.633 54.0876 191.695 53.8811 192.789C53.6935 193.89 53.5059 194.991 53.3127 196.125C53.1135 197.203 52.9144 198.28 52.7092 199.391C52.3331 201.438 51.9647 203.486 51.6069 205.536C50.7618 210.361 49.8766 215.18 49.0002 220C81.0102 220 113.02 220 146 220C146.33 215.71 146.66 211.42 147 207C147.295 204.459 147.614 201.92 147.973 199.387C148.239 197.487 148.239 197.487 148.51 195.549C148.692 194.275 148.875 193 149.062 191.688C149.251 190.35 149.439 189.012 149.627 187.674C150.081 184.449 150.539 181.224 151 178C150.082 178.021 149.164 178.042 148.218 178.064C144.803 178.132 141.39 178.182 137.975 178.22C136.499 178.24 135.022 178.267 133.546 178.302C131.421 178.351 129.297 178.373 127.172 178.391C125.255 178.422 125.255 178.422 123.3 178.454C120 178 120 178 117.61 176.128C115.702 173.606 115.077 172.168 115 169C116.622 165.514 117.765 164.157 121 162C124.018 161.722 124.018 161.722 127.766 161.681C128.45 161.671 129.133 161.661 129.837 161.651C132.093 161.62 134.349 161.603 136.605 161.586C138.171 161.567 139.736 161.548 141.301 161.527C145.419 161.476 149.537 161.436 153.655 161.399C157.858 161.359 162.061 161.308 166.264 161.258C174.509 161.161 182.754 161.077 191 161C190.725 160.33 190.451 159.659 190.168 158.968C189.808 158.08 189.448 157.192 189.077 156.277C188.72 155.4 188.363 154.524 187.995 153.62C181.643 136.89 183.495 116.254 190.66 100.176C199.438 81.7623 214.882 69.0006 233.875 61.9298C256.75 54.7464 281.977 59.5766 301 74.0001ZM213 95.0001C202.404 108.536 199.708 123.274 201 140C202.586 148.44 205.768 154.383 210 162C240.36 162 270.72 162 302 162C310.054 145.892 314.415 131.621 309.375 113.938C304.017 99.1892 293.647 86.7161 279.461 79.754C255.241 69.5187 230.557 75.9692 213 95.0001ZM167 179C166.554 181.599 166.164 184.186 165.809 186.797C165.699 187.583 165.589 188.369 165.477 189.178C165.245 190.846 165.016 192.514 164.788 194.182C164.441 196.726 164.085 199.269 163.729 201.813C163.505 203.432 163.281 205.052 163.059 206.672C162.952 207.431 162.846 208.189 162.737 208.971C162.231 212.717 162 216.202 162 220C190.38 220 218.76 220 248 220C248 206.14 248 192.28 248 178C233.806 177.971 233.806 177.971 219.611 177.951C213.826 177.945 208.041 177.938 202.255 177.925C197.593 177.914 192.931 177.908 188.269 177.905C186.487 177.903 184.704 177.9 182.921 177.894C180.433 177.887 177.945 177.886 175.457 177.887C174.713 177.883 173.968 177.879 173.201 177.876C169.814 177.58 169.814 177.58 167 179ZM264 178C264 191.86 264 205.72 264 220C292.38 220 320.76 220 350 220C349.238 210.85 348.263 201.889 347 192.813C346.82 191.479 346.64 190.145 346.461 188.811C346.288 187.56 346.115 186.309 345.938 185.02C345.782 183.886 345.626 182.753 345.465 181.585C345.268 179.078 345.268 179.078 344 178C341.505 177.905 339.038 177.875 336.543 177.887C335.762 177.886 334.982 177.886 334.178 177.886C331.586 177.887 328.994 177.895 326.402 177.902C324.61 177.904 322.818 177.906 321.026 177.907C316.299 177.911 311.573 177.92 306.846 177.931C301.18 177.943 295.515 177.948 289.849 177.954C281.232 177.964 272.616 177.983 264 178ZM361 178C362.005 192.063 364.006 206.043 366 220C398.01 220 430.02 220 463 220C462.254 211.795 461.266 204.149 459.688 196.125C459.487 195.024 459.287 193.923 459.08 192.789C457.639 185.123 457.639 185.123 453 179C449.727 177.363 446.108 177.871 442.511 177.887C441.633 177.886 440.755 177.886 439.85 177.886C436.939 177.887 434.028 177.895 431.117 177.902C429.102 177.904 427.087 177.906 425.072 177.907C419.762 177.911 414.452 177.92 409.142 177.931C403.726 177.942 398.31 177.946 392.895 177.951C382.263 177.962 371.632 177.979 361 178ZM46.0002 236C44.436 240.693 43.3233 245.085 42.4924 249.918C42.362 250.657 42.2317 251.396 42.0974 252.158C41.8247 253.71 41.5542 255.262 41.2858 256.814C40.8745 259.192 40.4555 261.568 40.0354 263.943C39.7706 265.456 39.5062 266.968 39.2424 268.481C39.1174 269.19 38.9925 269.899 38.8637 270.63C38.3763 273.465 38.0002 276.117 38.0002 279C71.0002 279 104 279 138 279C141.493 257.569 141.493 257.569 143 236C110.99 236 78.9802 236 46.0002 236ZM159 237C158.554 239.587 158.163 242.162 157.809 244.762C157.699 245.545 157.589 246.329 157.477 247.136C157.245 248.799 157.016 250.463 156.788 252.127C156.441 254.66 156.085 257.193 155.729 259.725C155.505 261.341 155.281 262.958 155.059 264.574C154.952 265.328 154.846 266.081 154.737 266.857C154.178 270.995 154 274.79 154 279C185.02 279 216.04 279 248 279C248 264.81 248 250.62 248 236C232.384 235.971 232.384 235.971 216.768 235.951C210.403 235.945 204.038 235.938 197.673 235.925C192.544 235.914 187.416 235.908 182.287 235.905C180.326 235.903 178.364 235.9 176.403 235.894C173.666 235.887 170.929 235.886 168.192 235.887C167.372 235.883 166.553 235.879 165.709 235.876C162.055 235.535 162.055 235.535 159 237ZM264 236C264 250.19 264 264.38 264 279C295.02 279 326.04 279 358 279C357.267 269.467 356.323 260.191 355 250.75C354.82 249.421 354.64 248.091 354.461 246.762C354.288 245.515 354.115 244.269 353.938 242.985C353.782 241.858 353.626 240.731 353.465 239.569C353.266 237.076 353.266 237.076 352 236C349.261 235.905 346.548 235.875 343.808 235.887C342.95 235.886 342.091 235.886 341.207 235.886C338.355 235.887 335.504 235.895 332.652 235.902C330.681 235.904 328.709 235.906 326.738 235.907C321.538 235.911 316.338 235.92 311.138 235.931C304.905 235.943 298.671 235.948 292.438 235.954C282.959 235.964 273.479 235.983 264 236ZM369 236C370.028 250.393 372.028 264.706 374 279C407 279 440 279 474 279C472.62 269.342 471.154 259.78 469.438 250.188C469.216 248.924 468.995 247.66 468.768 246.358C468.554 245.161 468.341 243.964 468.121 242.731C467.93 241.652 467.738 240.573 467.541 239.462C467.246 237.067 467.246 237.067 466 236C462.986 235.905 459.996 235.875 456.982 235.887C456.036 235.886 455.09 235.886 454.115 235.886C450.971 235.887 447.827 235.895 444.684 235.902C442.51 235.904 440.337 235.906 438.164 235.907C432.431 235.911 426.698 235.92 420.966 235.931C415.121 235.942 409.276 235.946 403.432 235.951C391.954 235.962 380.477 235.979 369 236ZM35.0002 295C30.1669 315.711 30.1669 315.711 28.0002 337C61.6602 337 95.3202 337 130 337C133.47 316.067 133.47 316.067 135 295C102 295 69.0002 295 35.0002 295ZM151 295C147.53 315.933 147.53 315.933 146 337C179.66 337 213.32 337 248 337C248 323.14 248 309.28 248 295C215.99 295 183.98 295 151 295ZM264 295C264 308.86 264 322.72 264 337C297.66 337 331.32 337 366 337C364.919 322.943 362.926 308.967 361 295C328.99 295 296.98 295 264 295ZM377 295C378.081 309.057 380.074 323.034 382 337C415.66 337 449.32 337 484 337C483.187 327.876 483.187 327.876 481.844 318.906C481.626 317.692 481.408 316.478 481.184 315.227C480.958 313.997 480.732 312.767 480.5 311.5C480.274 310.239 480.049 308.979 479.816 307.68C478.711 301.265 478.711 301.265 477 295C444 295 411 295 377 295ZM238 394C238 402.58 238 411.16 238 420C249.88 420 261.76 420 274 420C274 411.42 274 402.84 274 394C262.12 394 250.24 394 238 394ZM200 440C197.461 445.077 199 451.324 199 457C236.62 457 274.24 457 313 457C314.562 442.885 314.562 442.885 309 437C306.722 435.861 305.452 435.868 302.921 435.853C302.067 435.846 301.213 435.839 300.334 435.831C299.395 435.829 298.456 435.826 297.489 435.823C296.008 435.813 296.008 435.813 294.498 435.803C291.221 435.783 287.945 435.772 284.668 435.762C282.992 435.756 282.992 435.756 281.282 435.75C275.37 435.729 269.457 435.714 263.545 435.705C257.431 435.694 251.318 435.66 245.204 435.62C240.509 435.594 235.814 435.585 231.119 435.582C228.865 435.577 226.611 435.565 224.358 435.547C221.204 435.522 218.052 435.523 214.899 435.53C213.967 435.517 213.034 435.505 212.073 435.491C206.785 435.534 203.787 435.918 200 440ZM161 476C156.487 483.004 158 487.842 158 497C222.68 497 287.36 497 354 497C354.757 485.423 354.757 485.423 351 476C346.891 472.844 343.707 472.624 338.599 472.619C337.495 472.612 337.495 472.612 336.369 472.605C333.909 472.593 331.449 472.603 328.988 472.612C327.222 472.608 325.456 472.603 323.69 472.596C318.897 472.582 314.104 472.588 309.31 472.597C304.295 472.605 299.279 472.598 294.263 472.593C285.84 472.588 277.416 472.595 268.993 472.609C259.254 472.625 249.515 472.62 239.776 472.604C231.415 472.59 223.054 472.588 214.693 472.596C209.699 472.601 204.705 472.601 199.711 472.591C195.016 472.583 190.321 472.589 185.626 472.606C183.903 472.61 182.18 472.609 180.456 472.602C178.104 472.594 175.753 472.604 173.401 472.619C172.085 472.62 170.769 472.621 169.412 472.623C165.757 473.027 163.896 473.776 161 476Z" fill="white"/>
<path d="M347 35.9996C349.563 38.0621 349.563 38.0621 351 40.9996C350.713 48.9382 346.293 52.6892 340.965 57.9271C339.441 59.4339 337.958 60.9744 336.475 62.5211C328.463 70.6495 328.463 70.6495 323.441 70.7574C320 69.9996 320 69.9996 317.5 68.4371C315.251 64.7823 315.108 63.2564 316 58.9996C318.625 55.2964 321.785 52.1919 325 48.9996C326.068 47.9097 327.134 46.8185 328.199 45.7262C339.086 34.6416 339.086 34.6416 347 35.9996Z" fill="white"/>
<path d="M170.879 35.4099C175.237 36.6217 177.914 39.8416 181 42.9997C182.106 44.0862 183.214 45.1707 184.324 46.2536C195.844 57.5704 195.844 57.5704 196.375 62.4372C196 65.9997 196 65.9997 194.5 68.4372C191.758 70.1511 189.656 70.7811 186.412 70.7114C181.271 69.1945 177.677 64.7653 174.052 60.9848C172.566 59.4407 171.046 57.9375 169.518 56.4353C161.256 48.0666 161.256 48.0666 161 40.9997C163.225 36.4532 165.738 35.0231 170.879 35.4099Z" fill="white"/>
<path d="M363.343 121.815C365.362 121.812 367.38 121.794 369.399 121.775C370.678 121.773 371.957 121.771 373.274 121.769C374.444 121.765 375.614 121.761 376.819 121.757C379.992 121.999 382.172 122.574 385.001 124C387.168 126.66 386.996 128.088 386.814 131.562C385.73 136.149 385.73 136.149 383.001 138C380.32 138.322 377.876 138.468 375.192 138.469C374.429 138.476 373.666 138.484 372.88 138.492C371.267 138.503 369.654 138.505 368.041 138.501C365.575 138.5 363.113 138.542 360.648 138.586C359.079 138.591 357.511 138.594 355.942 138.594C355.207 138.61 354.471 138.626 353.714 138.643C349.922 138.592 348.325 138.308 345.536 135.654C343.659 132.409 343.373 130.69 344.001 127C349.061 120.544 355.81 121.814 363.343 121.815Z" fill="white"/>
<path d="M144.342 121.814C146.361 121.812 148.38 121.793 150.399 121.775C151.677 121.773 152.956 121.771 154.274 121.769C155.443 121.765 156.613 121.76 157.818 121.756C160.991 121.998 163.171 122.574 166 123.999C168.167 126.659 167.995 128.087 167.813 131.562C166.729 136.148 166.729 136.148 164 137.999C161.319 138.322 158.875 138.467 156.191 138.468C155.428 138.475 154.665 138.483 153.879 138.491C152.266 138.502 150.653 138.505 149.04 138.5C146.574 138.499 144.112 138.541 141.647 138.585C140.078 138.59 138.51 138.593 136.941 138.593C136.206 138.609 135.47 138.626 134.713 138.643C130.938 138.592 129.312 138.287 126.5 135.689C124.454 132.021 124.893 129.985 126 125.999C130.217 120.249 137.976 121.813 144.342 121.814Z" fill="white"/>
<path d="M256 -0.5C256.66 -0.510313 257.32 -0.520625 258 -0.53125C260.989 0.262637 262.096 1.57389 264 4C264.399 6.62154 264.562 8.81608 264.531 11.4336C264.535 12.1485 264.539 12.8635 264.543 13.6001C264.546 15.1088 264.538 16.6176 264.522 18.1262C264.5 20.427 264.521 22.7247 264.547 25.0254C264.544 26.4948 264.539 27.9642 264.531 29.4336C264.539 30.1171 264.548 30.8006 264.556 31.5047C264.464 36.245 263.36 38.6776 260 42C258 42.6641 258 42.6641 256 42.625C255.01 42.6443 255.01 42.6443 254 42.6641C250.836 41.6135 249.796 39.7594 248 37C247.61 34.334 247.437 32.0916 247.469 29.4336C247.465 28.7177 247.461 28.0018 247.457 27.2642C247.455 25.7572 247.462 24.2503 247.479 22.7434C247.5 20.4405 247.479 18.1407 247.453 15.8379C247.456 14.3698 247.461 12.9017 247.469 11.4336C247.461 10.7481 247.453 10.0626 247.444 9.35631C247.511 5.97155 247.792 4.26471 249.908 1.5686C252.179 -0.134491 253.199 -0.543774 256 -0.5Z" fill="white"/>
</g>
</g>
<defs>
<clipPath id="clip0_137_199">
<rect width="512" height="512" fill="white"/>
</clipPath>
</defs>
</svg>
